<?xml version="1.0" standalone="no"?>
<!DOCTYPE svg PUBLIC "-//W3C//DTD SVG 1.1//EN" 
  "http://www.w3.org/Graphics/SVG/1.1/DTD/svg11.dtd">
<svg width="4096" height="2048" viewBox="0 0 4096 2048"
     xmlns="http://www.w3.org/2000/svg" version="1.1">
<desc>seoil_framebody.blend, (Blender 4.3.2)</desc>
<polygon stroke="black" stroke-width="1" fill="rgb(170, 20, 32)" fill-opacity="1" points="3009.691,127.382 3009.691,147.347 3077.312,147.347 3077.312,127.382 " />
<polygon stroke="black" stroke-width="1" fill="rgb(170, 20, 32)" fill-opacity="1" points="3009.691,15.259 3009.691,35.224 3077.312,35.224 3077.312,15.259 " />
<polygon stroke="black" stroke-width="1" fill="rgb(170, 20, 32)" fill-opacity="1" points="2817.231,15.259 2817.231,35.224 2908.260,35.224 2908.260,15.259 " />
<polygon stroke="black" stroke-width="1" fill="rgb(170, 20, 32)" fill-opacity="1" points="3077.312,15.259 3077.312,35.224 3303.835,35.224 3303.835,15.259 " />
<polygon stroke="black" stroke-width="1" fill="rgb(170, 20, 32)" fill-opacity="1" points="2817.231,127.382 2817.231,147.347 2908.260,147.347 2908.260,127.382 " />
<polygon stroke="black" stroke-width="1" fill="rgb(170, 20, 32)" fill-opacity="1" points="2487.235,15.259 2487.235,35.224 2817.231,35.224 2817.231,15.259 " />
<polygon stroke="black" stroke-width="1" fill="rgb(170, 20, 32)" fill-opacity="1" points="3009.691,121.029 3009.691,41.578 2908.260,41.578 2908.260,121.029 " />
<polygon stroke="black" stroke-width="1" fill="rgb(170, 20, 32)" fill-opacity="1" points="2817.231,121.029 2817.231,41.578 2487.235,41.578 2487.235,121.029 " />
<polygon stroke="black" stroke-width="1" fill="rgb(170, 20, 32)" fill-opacity="1" points="2487.235,127.382 2487.235,147.347 2817.231,147.347 2817.231,127.382 " />
<polygon stroke="black" stroke-width="1" fill="rgb(170, 20, 32)" fill-opacity="1" points="3077.312,127.382 3077.312,147.347 3303.835,147.347 3303.835,127.382 " />
<polygon stroke="black" stroke-width="1" fill="rgb(170, 20, 32)" fill-opacity="1" points="3303.835,121.029 3303.835,41.578 3077.312,41.578 3077.312,121.029 " />
<polygon stroke="black" stroke-width="1" fill="rgb(170, 20, 32)" fill-opacity="1" points="2817.231,121.029 2487.235,121.029 2487.235,127.382 2817.231,127.382 " />
<polygon stroke="black" stroke-width="1" fill="rgb(170, 20, 32)" fill-opacity="1" points="2487.235,41.578 2817.231,41.578 2817.231,35.224 2487.235,35.224 " />
<polygon stroke="black" stroke-width="1" fill="rgb(170, 20, 32)" fill-opacity="1" points="3303.835,121.029 3077.312,121.029 3077.312,127.382 3303.835,127.382 " />
<polygon stroke="black" stroke-width="1" fill="rgb(170, 20, 32)" fill-opacity="1" points="3077.312,41.578 3303.835,41.578 3303.835,35.224 3077.312,35.224 " />
<polygon stroke="black" stroke-width="1" fill="rgb(170, 20, 32)" fill-opacity="1" points="2908.260,121.029 2817.231,121.029 2817.231,127.382 2908.260,127.382 " />
<polygon stroke="black" stroke-width="1" fill="rgb(170, 20, 32)" fill-opacity="1" points="3009.691,41.578 3077.312,41.578 3077.312,35.224 3009.691,35.224 " />
<polygon stroke="black" stroke-width="1" fill="rgb(170, 20, 32)" fill-opacity="1" points="3009.691,121.029 2908.260,121.029 2908.260,127.382 3009.691,127.382 " />
<polygon stroke="black" stroke-width="1" fill="rgb(170, 20, 32)" fill-opacity="1" points="2817.231,41.578 2908.260,41.578 2908.260,35.224 2817.231,35.224 " />
<polygon stroke="black" stroke-width="1" fill="rgb(170, 20, 32)" fill-opacity="1" points="2908.260,121.029 2908.260,41.578 2817.231,41.578 2817.231,121.029 " />
<polygon stroke="black" stroke-width="1" fill="rgb(170, 20, 32)" fill-opacity="1" points="3077.312,121.029 3009.691,121.029 3009.691,127.382 3077.312,127.382 " />
<polygon stroke="black" stroke-width="1" fill="rgb(170, 20, 32)" fill-opacity="1" points="2908.260,41.578 3009.691,41.578 3009.691,35.224 2908.260,35.224 " />
<polygon stroke="black" stroke-width="1" fill="rgb(170, 20, 32)" fill-opacity="1" points="3077.312,121.029 3077.312,41.578 3009.691,41.578 3009.691,121.029 " />
<polygon stroke="black" stroke-width="1" fill="rgb(170, 20, 32)" fill-opacity="1" points="2908.260,15.259 2908.260,35.224 3009.691,35.224 3009.691,15.259 " />
<polygon stroke="black" stroke-width="1" fill="rgb(170, 20, 32)" fill-opacity="1" points="2908.260,127.382 2908.260,147.347 3009.691,147.347 3009.691,127.382 " />

</svg>
