<?xml version="1.0" standalone="no"?>
<!DOCTYPE svg PUBLIC "-//W3C//DTD SVG 1.1//EN" 
  "http://www.w3.org/Graphics/SVG/1.1/DTD/svg11.dtd">
<svg width="4096" height="2048" viewBox="0 0 4096 2048"
     xmlns="http://www.w3.org/2000/svg" version="1.1">
<desc>interrawt3.blend, (Blender 4.3.2)</desc>
<polygon stroke="black" stroke-width="1" fill="rgb(10, 10, 10)" fill-opacity="1" points="3455.915,112.301 3346.992,112.321 3346.994,114.612 3455.915,114.591 " />
<polygon stroke="black" stroke-width="1" fill="rgb(10, 10, 10)" fill-opacity="1" points="3131.363,134.259 3131.381,116.641 3128.190,114.401 3128.213,134.305 " />
<polygon stroke="black" stroke-width="1" fill="rgb(10, 10, 10)" fill-opacity="1" points="3234.784,133.251 3234.836,154.037 3347.017,153.889 3347.010,132.994 " />
<polygon stroke="black" stroke-width="1" fill="rgb(10, 10, 10)" fill-opacity="1" points="3234.470,210.289 3132.962,210.003 3129.832,213.089 3234.464,213.496 " />
<polygon stroke="black" stroke-width="1" fill="rgb(10, 10, 10)" fill-opacity="1" points="3133.966,134.227 3134.249,155.108 3234.836,154.037 3234.784,133.251 " />
<polygon stroke="black" stroke-width="1" fill="rgb(10, 10, 10)" fill-opacity="1" points="3132.511,181.073 3132.425,177.780 3129.436,179.532 " />
<polygon stroke="black" stroke-width="1" fill="rgb(10, 10, 10)" fill-opacity="1" points="3129.436,179.532 3132.425,177.780 3131.659,155.206 3128.500,155.408 " />
<polygon stroke="black" stroke-width="1" fill="rgb(10, 10, 10)" fill-opacity="1" points="3234.836,154.037 3234.839,176.032 3347.011,176.043 3347.017,153.889 " />
<polygon stroke="black" stroke-width="1" fill="rgb(10, 10, 10)" fill-opacity="1" points="3131.659,155.206 3131.363,134.259 3128.213,134.305 3128.500,155.408 " />
<polygon stroke="black" stroke-width="1" fill="rgb(10, 10, 10)" fill-opacity="1" points="3132.962,210.003 3132.511,181.073 3129.436,179.532 3129.832,213.089 " />
<polygon stroke="black" stroke-width="1" fill="rgb(10, 10, 10)" fill-opacity="1" points="3234.824,180.819 3135.083,181.725 3135.441,207.544 3234.489,207.733 " />
<polygon stroke="black" stroke-width="1" fill="rgb(10, 10, 10)" fill-opacity="1" points="3347.001,180.853 3234.824,180.819 3234.488,207.733 3346.936,207.793 " />
<polygon stroke="black" stroke-width="1" fill="rgb(10, 10, 10)" fill-opacity="1" points="3346.996,116.986 3455.916,116.970 3455.916,133.003 3347.010,132.994 " />
<polygon stroke="black" stroke-width="1" fill="rgb(10, 10, 10)" fill-opacity="1" points="3234.692,112.689 3346.992,112.321 3346.994,114.612 3234.703,114.974 " />
<polygon stroke="black" stroke-width="1" fill="rgb(10, 10, 10)" fill-opacity="1" points="3346.992,112.321 3234.692,112.689 3234.703,114.974 3346.994,114.612 " />
<polygon stroke="black" stroke-width="1" fill="rgb(10, 10, 10)" fill-opacity="1" points="3134.249,155.108 3134.969,177.010 3234.839,176.032 3234.836,154.037 " />
<polygon stroke="black" stroke-width="1" fill="rgb(10, 10, 10)" fill-opacity="1" points="3234.839,176.032 3134.969,177.010 3135.083,181.725 3234.824,180.819 " />
<polygon stroke="black" stroke-width="1" fill="rgb(10, 10, 10)" fill-opacity="1" points="3133.942,118.219 3234.714,117.329 3234.784,133.251 3133.966,134.227 " />
<polygon stroke="black" stroke-width="1" fill="rgb(10, 10, 10)" fill-opacity="1" points="3347.011,176.043 3234.839,176.032 3234.824,180.819 3347.001,180.853 " />
<polygon stroke="black" stroke-width="1" fill="rgb(10, 10, 10)" fill-opacity="1" points="3133.966,134.227 3234.784,133.251 3234.836,154.037 3134.249,155.108 " />
<polygon stroke="black" stroke-width="1" fill="rgb(10, 10, 10)" fill-opacity="1" points="3131.363,134.259 3128.213,134.305 3128.190,114.401 3131.381,116.641 " />
<polygon stroke="black" stroke-width="1" fill="rgb(10, 10, 10)" fill-opacity="1" points="3234.784,133.251 3347.010,132.994 3347.017,153.889 3234.836,154.037 " />
<polygon stroke="black" stroke-width="1" fill="rgb(10, 10, 10)" fill-opacity="1" points="3234.470,210.289 3234.464,213.496 3129.832,213.089 3132.962,210.003 " />
<polygon stroke="black" stroke-width="1" fill="rgb(10, 10, 10)" fill-opacity="1" points="3346.992,112.321 3455.915,112.301 3455.915,114.591 3346.994,114.612 " />
<polygon stroke="black" stroke-width="1" fill="rgb(10, 10, 10)" fill-opacity="1" points="3132.511,181.073 3129.436,179.532 3132.424,177.780 " />
<polygon stroke="black" stroke-width="1" fill="rgb(10, 10, 10)" fill-opacity="1" points="3129.436,179.532 3128.500,155.408 3131.659,155.206 3132.425,177.780 " />
<polygon stroke="black" stroke-width="1" fill="rgb(10, 10, 10)" fill-opacity="1" points="3234.836,154.037 3347.017,153.889 3347.011,176.043 3234.839,176.032 " />
<polygon stroke="black" stroke-width="1" fill="rgb(10, 10, 10)" fill-opacity="1" points="3131.659,155.206 3128.500,155.408 3128.213,134.305 3131.363,134.259 " />
<polygon stroke="black" stroke-width="1" fill="rgb(10, 10, 10)" fill-opacity="1" points="3132.962,210.003 3129.832,213.089 3129.436,179.532 3132.511,181.073 " />
<polygon stroke="black" stroke-width="1" fill="rgb(10, 10, 10)" fill-opacity="1" points="3346.932,210.349 3234.470,210.289 3234.464,213.496 3346.930,213.554 " />
<polygon stroke="black" stroke-width="1" fill="rgb(10, 10, 10)" fill-opacity="1" points="3234.824,180.819 3234.488,207.733 3135.441,207.544 3135.083,181.725 " />
<polygon stroke="black" stroke-width="1" fill="rgb(10, 10, 10)" fill-opacity="1" points="3347.001,180.853 3346.936,207.793 3234.488,207.733 3234.824,180.819 " />
<polygon stroke="black" stroke-width="1" fill="rgb(10, 10, 10)" fill-opacity="1" points="3346.932,210.349 3346.930,213.554 3234.464,213.496 3234.470,210.289 " />
<polygon stroke="black" stroke-width="1" fill="rgb(10, 10, 10)" fill-opacity="1" points="3234.692,112.689 3234.703,114.974 3131.381,116.641 3128.190,114.401 " />
<polygon stroke="black" stroke-width="1" fill="rgb(10, 10, 10)" fill-opacity="1" points="3134.249,155.108 3234.836,154.037 3234.839,176.032 3134.969,177.010 " />
<polygon stroke="black" stroke-width="1" fill="rgb(10, 10, 10)" fill-opacity="1" points="3234.839,176.032 3234.824,180.819 3135.083,181.725 3134.969,177.010 " />
<polygon stroke="black" stroke-width="1" fill="rgb(10, 10, 10)" fill-opacity="1" points="3347.011,176.043 3347.001,180.853 3234.824,180.819 3234.839,176.032 " />
<polygon stroke="black" stroke-width="1" fill="rgb(10, 10, 10)" fill-opacity="1" points="3234.692,112.689 3346.992,112.321 3347.010,132.994 3234.784,133.251 " />
<polygon stroke="black" stroke-width="1" fill="rgb(10, 10, 10)" fill-opacity="1" points="3234.692,112.689 3234.784,133.251 3128.213,134.305 3128.190,114.401 " />
<polygon stroke="black" stroke-width="1" fill="rgb(10, 10, 10)" fill-opacity="1" points="3234.784,133.251 3347.010,132.994 3347.017,153.889 3234.836,154.037 " />
<polygon stroke="black" stroke-width="1" fill="rgb(10, 10, 10)" fill-opacity="1" points="3234.836,154.037 3234.829,179.176 3347.004,179.620 3347.017,153.889 " />
<polygon stroke="black" stroke-width="1" fill="rgb(10, 10, 10)" fill-opacity="1" points="3234.836,154.037 3128.500,155.408 3128.213,134.305 3234.784,133.251 " />
<polygon stroke="black" stroke-width="1" fill="rgb(10, 10, 10)" fill-opacity="1" points="3234.836,154.037 3234.829,179.176 3129.436,179.532 3128.500,155.408 " />
<polygon stroke="black" stroke-width="1" fill="rgb(10, 10, 10)" fill-opacity="1" points="3347.004,179.620 3234.829,179.176 3234.464,213.496 3346.930,213.554 " />
<polygon stroke="black" stroke-width="1" fill="rgb(10, 10, 10)" fill-opacity="1" points="3234.829,179.176 3234.464,213.496 3129.832,213.089 3129.436,179.532 " />
<polygon stroke="black" stroke-width="1" fill="rgb(10, 10, 10)" fill-opacity="1" points="3346.992,112.321 3347.010,132.994 3455.916,133.003 3455.915,112.301 " />
<polygon stroke="black" stroke-width="1" fill="rgb(10, 10, 10)" fill-opacity="1" points="3234.692,112.689 3234.784,133.251 3347.010,132.994 3346.992,112.321 " />
<polygon stroke="black" stroke-width="1" fill="rgb(10, 10, 10)" fill-opacity="1" points="3234.784,133.251 3234.692,112.689 3128.190,114.401 3128.213,134.305 " />
<polygon stroke="black" stroke-width="1" fill="rgb(10, 10, 10)" fill-opacity="1" points="3234.784,133.251 3234.836,154.037 3347.017,153.889 3347.010,132.994 " />
<polygon stroke="black" stroke-width="1" fill="rgb(10, 10, 10)" fill-opacity="1" points="3387.738,153.905 3399.957,153.910 3399.944,179.663 3387.725,179.653 " />
<polygon stroke="black" stroke-width="1" fill="rgb(10, 10, 10)" fill-opacity="1" points="3234.784,133.251 3128.213,134.305 3128.500,155.408 3234.836,154.037 " />
<polygon stroke="black" stroke-width="1" fill="rgb(10, 10, 10)" fill-opacity="1" points="3129.436,179.532 3234.829,179.176 3234.836,154.037 3128.500,155.408 " />
<polygon stroke="black" stroke-width="1" fill="rgb(10, 10, 10)" fill-opacity="1" points="3346.930,213.554 3347.004,179.620 3387.725,179.653 3387.671,213.596 " />
<polygon stroke="black" stroke-width="1" fill="rgb(10, 10, 10)" fill-opacity="1" points="3234.464,213.496 3234.829,179.176 3129.436,179.532 3129.832,213.089 " />
<polygon stroke="black" stroke-width="1" fill="rgb(10, 10, 10)" fill-opacity="1" points="3399.944,179.663 3399.895,213.609 3387.671,213.596 3387.725,179.653 " />
<polygon stroke="black" stroke-width="1" fill="rgb(10, 10, 10)" fill-opacity="1" points="3129.832,213.089 3234.464,213.496 3234.464,213.496 3129.832,213.089 " />
<polygon stroke="black" stroke-width="1" fill="rgb(10, 10, 10)" fill-opacity="1" points="3234.464,213.496 3346.930,213.554 3346.930,213.554 3234.464,213.496 " />
<polygon stroke="black" stroke-width="1" fill="rgb(10, 10, 10)" fill-opacity="1" points="3234.464,213.496 3129.832,213.089 3129.832,213.089 3234.464,213.496 " />
<polygon stroke="black" stroke-width="1" fill="rgb(10, 10, 10)" fill-opacity="1" points="3346.930,213.554 3234.464,213.496 3234.464,213.496 3346.930,213.554 " />
<polygon stroke="black" stroke-width="1" fill="rgb(10, 10, 10)" fill-opacity="1" points="3234.714,117.329 3346.996,116.986 3347.010,132.994 3234.784,133.251 " />
<polygon stroke="black" stroke-width="1" fill="rgb(10, 10, 10)" fill-opacity="1" points="3346.996,116.986 3347.010,132.994 3455.916,133.003 3455.916,116.970 " />
<polygon stroke="black" stroke-width="1" fill="rgb(10, 10, 10)" fill-opacity="1" points="3234.714,117.329 3234.784,133.251 3347.010,132.994 3346.996,116.986 " />
<polygon stroke="black" stroke-width="1" fill="rgb(10, 10, 10)" fill-opacity="1" points="3133.942,118.219 3133.966,134.227 3234.784,133.251 3234.714,117.329 " />
<polygon stroke="black" stroke-width="1" fill="rgb(10, 10, 10)" fill-opacity="1" points="3346.996,116.986 3455.916,116.970 3455.915,114.591 3346.994,114.612 " />
<polygon stroke="black" stroke-width="1" fill="rgb(10, 10, 10)" fill-opacity="1" points="3234.489,207.733 3135.441,207.544 3132.962,210.003 3234.470,210.289 " />
<polygon stroke="black" stroke-width="1" fill="rgb(10, 10, 10)" fill-opacity="1" points="3346.936,207.793 3234.488,207.733 3234.470,210.289 3346.932,210.349 " />
<polygon stroke="black" stroke-width="1" fill="rgb(10, 10, 10)" fill-opacity="1" points="3234.714,117.329 3346.996,116.986 3346.994,114.612 3234.703,114.974 " />
<polygon stroke="black" stroke-width="1" fill="rgb(10, 10, 10)" fill-opacity="1" points="3133.942,118.219 3234.714,117.329 3234.703,114.974 3131.381,116.641 " />
<polygon stroke="black" stroke-width="1" fill="rgb(10, 10, 10)" fill-opacity="1" points="3131.381,116.641 3131.363,134.259 3133.966,134.227 3133.942,118.219 " />
<polygon stroke="black" stroke-width="1" fill="rgb(10, 10, 10)" fill-opacity="1" points="3131.363,134.259 3131.659,155.206 3134.249,155.108 3133.966,134.227 " />
<polygon stroke="black" stroke-width="1" fill="rgb(10, 10, 10)" fill-opacity="1" points="3135.083,181.725 3134.969,177.010 3132.425,177.780 3132.511,181.073 " />
<polygon stroke="black" stroke-width="1" fill="rgb(10, 10, 10)" fill-opacity="1" points="3131.659,155.206 3132.425,177.780 3134.969,177.010 3134.249,155.108 " />
<polygon stroke="black" stroke-width="1" fill="rgb(10, 10, 10)" fill-opacity="1" points="3132.511,181.073 3132.962,210.003 3135.441,207.544 3135.083,181.725 " />
<polygon stroke="black" stroke-width="1" fill="rgb(10, 10, 10)" fill-opacity="1" points="3346.994,114.612 3455.915,114.591 3455.916,116.970 3346.996,116.986 " />
<polygon stroke="black" stroke-width="1" fill="rgb(10, 10, 10)" fill-opacity="1" points="3234.470,210.289 3132.962,210.003 3135.441,207.544 3234.488,207.733 " />
<polygon stroke="black" stroke-width="1" fill="rgb(10, 10, 10)" fill-opacity="1" points="3346.932,210.349 3234.470,210.289 3234.488,207.733 3346.936,207.793 " />
<polygon stroke="black" stroke-width="1" fill="rgb(10, 10, 10)" fill-opacity="1" points="3234.703,114.974 3346.994,114.612 3346.996,116.986 3234.714,117.329 " />
<polygon stroke="black" stroke-width="1" fill="rgb(10, 10, 10)" fill-opacity="1" points="3131.381,116.641 3234.703,114.974 3234.714,117.329 3133.942,118.219 " />
<polygon stroke="black" stroke-width="1" fill="rgb(10, 10, 10)" fill-opacity="1" points="3133.942,118.219 3133.966,134.227 3131.363,134.259 3131.381,116.641 " />
<polygon stroke="black" stroke-width="1" fill="rgb(10, 10, 10)" fill-opacity="1" points="3133.966,134.227 3134.249,155.108 3131.659,155.206 3131.363,134.259 " />
<polygon stroke="black" stroke-width="1" fill="rgb(10, 10, 10)" fill-opacity="1" points="3132.511,181.073 3132.424,177.780 3134.969,177.010 3135.083,181.725 " />
<polygon stroke="black" stroke-width="1" fill="rgb(10, 10, 10)" fill-opacity="1" points="3134.249,155.108 3134.969,177.010 3132.425,177.780 3131.659,155.206 " />
<polygon stroke="black" stroke-width="1" fill="rgb(10, 10, 10)" fill-opacity="1" points="3135.083,181.725 3135.441,207.544 3132.962,210.003 3132.511,181.073 " />
<polygon stroke="black" stroke-width="1" fill="rgb(10, 10, 10)" fill-opacity="1" points="3234.692,112.689 3128.190,114.401 3131.381,116.641 3234.703,114.974 " />
<polygon stroke="black" stroke-width="1" fill="rgb(10, 10, 10)" fill-opacity="1" points="3399.963,176.084 3399.973,153.911 3387.757,153.906 3387.748,176.075 " />
<polygon stroke="black" stroke-width="1" fill="rgb(10, 10, 10)" fill-opacity="1" points="3387.757,153.906 3347.017,153.889 3347.011,176.043 3387.748,176.075 " />
<polygon stroke="black" stroke-width="1" fill="rgb(10, 10, 10)" fill-opacity="1" points="3399.965,142.912 3391.309,146.143 3387.757,153.905 3399.973,153.910 " />
<polygon stroke="black" stroke-width="1" fill="rgb(10, 10, 10)" fill-opacity="1" points="3346.930,213.554 3346.932,210.349 3387.690,210.391 3387.681,213.596 " />
<polygon stroke="black" stroke-width="1" fill="rgb(10, 10, 10)" fill-opacity="1" points="3399.911,210.404 3455.869,210.461 3455.866,213.667 3399.903,213.609 " />
<polygon stroke="black" stroke-width="1" fill="rgb(10, 10, 10)" fill-opacity="1" points="3347.011,176.043 3347.001,180.853 3387.741,180.887 3387.748,176.075 " />
<polygon stroke="black" stroke-width="1" fill="rgb(10, 10, 10)" fill-opacity="1" points="3399.957,180.897 3455.892,180.944 3455.896,176.128 3399.963,176.084 " />
<polygon stroke="black" stroke-width="1" fill="rgb(10, 10, 10)" fill-opacity="1" points="3346.936,207.793 3347.001,180.853 3387.741,180.887 3387.697,207.835 " />
<polygon stroke="black" stroke-width="1" fill="rgb(10, 10, 10)" fill-opacity="1" points="3399.957,180.897 3455.892,180.944 3455.872,207.904 3399.917,207.847 " />
<polygon stroke="black" stroke-width="1" fill="rgb(10, 10, 10)" fill-opacity="1" points="3399.973,153.910 3399.963,176.084 3387.748,176.075 3387.757,153.906 " />
<polygon stroke="black" stroke-width="1" fill="rgb(10, 10, 10)" fill-opacity="1" points="3387.748,176.075 3347.011,176.043 3347.017,153.889 3387.757,153.906 " />
<polygon stroke="black" stroke-width="1" fill="rgb(10, 10, 10)" fill-opacity="1" points="3347.001,180.853 3347.011,176.043 3387.748,176.075 3387.741,180.887 " />
<polygon stroke="black" stroke-width="1" fill="rgb(10, 10, 10)" fill-opacity="1" points="3399.963,176.084 3455.896,176.128 3455.892,180.944 3399.957,180.897 " />
<polygon stroke="black" stroke-width="1" fill="rgb(10, 10, 10)" fill-opacity="1" points="3346.932,210.349 3346.930,213.554 3387.681,213.596 3387.690,210.391 " />
<polygon stroke="black" stroke-width="1" fill="rgb(10, 10, 10)" fill-opacity="1" points="3399.903,213.609 3455.866,213.667 3455.869,210.461 3399.911,210.404 " />
<polygon stroke="black" stroke-width="1" fill="rgb(10, 10, 10)" fill-opacity="1" points="3399.957,153.910 3387.738,153.905 3387.725,179.653 3399.943,179.663 " />
<polygon stroke="black" stroke-width="1" fill="rgb(10, 10, 10)" fill-opacity="1" points="3455.893,179.710 3455.910,153.933 3399.957,153.910 3399.943,179.663 " />
<polygon stroke="black" stroke-width="1" fill="rgb(10, 10, 10)" fill-opacity="1" points="3391.309,146.143 3347.010,132.994 3399.965,142.912 " />
<polygon stroke="black" stroke-width="1" fill="rgb(10, 10, 10)" fill-opacity="1" points="3347.017,153.889 3347.010,132.994 3391.309,146.143 3387.738,153.905 " />
<polygon stroke="black" stroke-width="1" fill="rgb(10, 10, 10)" fill-opacity="1" points="3387.725,179.653 3347.004,179.620 3346.930,213.554 3387.671,213.596 " />
<polygon stroke="black" stroke-width="1" fill="rgb(10, 10, 10)" fill-opacity="1" points="3455.866,213.667 3455.893,179.710 3399.943,179.663 3399.895,213.609 " />
<polygon stroke="black" stroke-width="1" fill="rgb(10, 10, 10)" fill-opacity="1" points="3347.017,153.889 3347.004,179.620 3387.725,179.653 3387.738,153.905 " />
<polygon stroke="black" stroke-width="1" fill="rgb(10, 10, 10)" fill-opacity="1" points="3455.910,153.933 3455.893,179.710 3399.944,179.663 3399.957,153.910 " />
<polygon stroke="black" stroke-width="1" fill="rgb(10, 10, 10)" fill-opacity="1" points="3399.965,142.912 3391.309,146.143 3387.738,153.905 3399.958,153.910 " />
<polygon stroke="black" stroke-width="1" fill="rgb(10, 10, 10)" fill-opacity="1" points="3347.017,153.889 3347.004,179.620 3234.829,179.176 3234.836,154.037 " />
<polygon stroke="black" stroke-width="1" fill="rgb(10, 10, 10)" fill-opacity="1" points="3399.903,213.609 3399.895,213.609 3387.671,213.596 3387.681,213.596 " />
<polygon stroke="black" stroke-width="1" fill="rgb(10, 10, 10)" fill-opacity="1" points="3387.671,213.596 3346.930,213.554 3346.930,213.554 3387.681,213.596 " />
<polygon stroke="black" stroke-width="1" fill="rgb(10, 10, 10)" fill-opacity="1" points="3346.930,213.554 3346.930,213.554 3387.671,213.596 3387.681,213.596 " />
<polygon stroke="black" stroke-width="1" fill="rgb(10, 10, 10)" fill-opacity="1" points="3399.895,213.609 3455.866,213.667 3455.866,213.667 3399.903,213.609 " />
<polygon stroke="black" stroke-width="1" fill="rgb(10, 10, 10)" fill-opacity="1" points="3347.001,180.853 3346.936,207.793 3387.697,207.835 3387.741,180.887 " />
<polygon stroke="black" stroke-width="1" fill="rgb(10, 10, 10)" fill-opacity="1" points="3399.917,207.847 3455.872,207.904 3455.892,180.944 3399.957,180.897 " />
<polygon stroke="black" stroke-width="1" fill="rgb(10, 10, 10)" fill-opacity="1" points="3346.936,207.793 3346.932,210.349 3387.690,210.391 3387.697,207.835 " />
<polygon stroke="black" stroke-width="1" fill="rgb(10, 10, 10)" fill-opacity="1" points="3399.911,210.404 3455.869,210.461 3455.872,207.904 3399.917,207.847 " />
<polygon stroke="black" stroke-width="1" fill="rgb(10, 10, 10)" fill-opacity="1" points="3387.690,210.391 3346.932,210.349 3346.936,207.793 3387.697,207.835 " />
<polygon stroke="black" stroke-width="1" fill="rgb(10, 10, 10)" fill-opacity="1" points="3399.917,207.847 3399.911,210.404 3387.690,210.391 3387.697,207.835 " />
<polygon stroke="black" stroke-width="1" fill="rgb(10, 10, 10)" fill-opacity="1" points="3399.973,153.885 3387.757,153.874 3391.309,146.143 3399.965,142.912 " />
<polygon stroke="black" stroke-width="1" fill="rgb(10, 10, 10)" fill-opacity="1" points="3455.913,142.925 3399.965,142.912 3347.010,132.994 3455.916,133.003 " />
<polygon stroke="black" stroke-width="1" fill="rgb(10, 10, 10)" fill-opacity="1" points="3399.965,142.912 3399.957,153.884 3387.738,153.873 3391.309,146.143 " />
<polygon stroke="black" stroke-width="1" fill="rgb(10, 10, 10)" fill-opacity="1" points="3347.010,132.994 3399.965,142.912 3455.913,142.925 3455.916,133.003 " />
<polygon stroke="black" stroke-width="1" fill="rgb(10, 10, 10)" fill-opacity="1" points="3391.309,146.143 3387.757,153.906 3347.017,153.889 3347.010,132.994 " />
<polygon stroke="black" stroke-width="1" fill="rgb(10, 10, 10)" fill-opacity="1" points="3399.965,142.912 3347.010,132.994 3391.309,146.143 " />
<polygon stroke="black" stroke-width="1" fill="rgb(10, 10, 10)" fill-opacity="1" points="3455.913,142.925 3455.916,133.003 3347.010,132.994 3399.965,142.912 " />
<polygon stroke="black" stroke-width="1" fill="rgb(10, 10, 10)" fill-opacity="1" points="3347.010,132.994 3455.916,133.003 3455.913,142.925 3399.965,142.912 " />
<polygon stroke="black" stroke-width="1" fill="rgb(10, 10, 10)" fill-opacity="1" points="3387.757,153.874 3391.309,146.143 3347.010,132.994 3347.017,153.889 " />
<polygon stroke="black" stroke-width="1" fill="rgb(10, 10, 10)" fill-opacity="1" points="3391.309,146.143 3399.965,142.912 3347.010,132.994 " />
<polygon stroke="black" stroke-width="1" fill="rgb(10, 10, 10)" fill-opacity="1" points="3347.010,132.994 3347.017,153.889 3387.738,153.873 3391.309,146.143 " />
<polygon stroke="black" stroke-width="1" fill="rgb(10, 10, 10)" fill-opacity="1" points="3399.965,142.912 3391.309,146.143 3347.010,132.994 " />
<polygon stroke="black" stroke-width="1" fill="rgb(10, 10, 10)" fill-opacity="1" points="3129.436,179.532 3129.436,179.532 3129.832,213.089 3129.832,213.089 " />
<polygon stroke="black" stroke-width="1" fill="rgb(10, 10, 10)" fill-opacity="1" points="3129.436,179.532 3128.500,155.408 3128.500,155.408 3129.436,179.532 " />
<polygon stroke="black" stroke-width="1" fill="rgb(10, 10, 10)" fill-opacity="1" points="3128.500,155.408 3128.213,134.305 3128.213,134.305 3128.500,155.408 " />
<polygon stroke="black" stroke-width="1" fill="rgb(10, 10, 10)" fill-opacity="1" points="3128.213,134.305 3128.190,114.401 3128.190,114.401 3128.213,134.305 " />
<polygon stroke="black" stroke-width="1" fill="rgb(10, 10, 10)" fill-opacity="1" points="3129.436,179.532 3129.832,213.089 3129.832,213.089 3129.436,179.532 " />
<polygon stroke="black" stroke-width="1" fill="rgb(10, 10, 10)" fill-opacity="1" points="3129.436,179.532 3129.436,179.532 3128.500,155.408 3128.500,155.408 " />
<polygon stroke="black" stroke-width="1" fill="rgb(10, 10, 10)" fill-opacity="1" points="3128.500,155.408 3128.500,155.408 3128.213,134.305 3128.213,134.305 " />
<polygon stroke="black" stroke-width="1" fill="rgb(10, 10, 10)" fill-opacity="1" points="3128.213,134.305 3128.213,134.305 3128.190,114.401 3128.190,114.401 " />
<polygon stroke="black" stroke-width="1" fill="rgb(10, 10, 10)" fill-opacity="1" points="3455.915,112.301 3455.916,133.003 3347.010,132.994 3346.992,112.321 " />
<polygon stroke="black" stroke-width="1" fill="rgb(10, 10, 10)" fill-opacity="1" points="3455.896,176.128 3455.910,153.933 3399.973,153.911 3399.963,176.084 " />
<polygon stroke="black" stroke-width="1" fill="rgb(10, 10, 10)" fill-opacity="1" points="3387.741,180.887 3399.957,180.897 3399.963,176.084 3387.748,176.075 " />
<polygon stroke="black" stroke-width="1" fill="rgb(10, 10, 10)" fill-opacity="1" points="3387.697,207.835 3399.917,207.847 3399.957,180.897 3387.741,180.887 " />
<polygon stroke="black" stroke-width="1" fill="rgb(10, 10, 10)" fill-opacity="1" points="3387.690,210.391 3399.911,210.404 3399.917,207.847 3387.697,207.835 " />
<polygon stroke="black" stroke-width="1" fill="rgb(10, 10, 10)" fill-opacity="1" points="3387.681,213.596 3399.903,213.609 3399.911,210.404 3387.690,210.391 " />
<polygon stroke="black" stroke-width="1" fill="rgb(10, 10, 10)" fill-opacity="1" points="3387.671,213.596 3399.895,213.609 3399.903,213.609 3387.681,213.596 " />
<polygon stroke="black" stroke-width="1" fill="rgb(10, 10, 10)" fill-opacity="1" points="3399.895,213.609 3399.943,179.663 3387.725,179.653 3387.671,213.596 " />
<polygon stroke="black" stroke-width="1" fill="rgb(10, 10, 10)" fill-opacity="1" points="3455.913,142.925 3455.910,153.933 3399.957,153.884 3399.965,142.912 " />
<polygon stroke="black" stroke-width="1" fill="rgb(10, 10, 10)" fill-opacity="1" points="3455.913,142.925 3399.965,142.912 3399.973,153.910 3455.910,153.933 " />
<polygon stroke="black" stroke-width="1" fill="rgb(10, 10, 10)" fill-opacity="1" points="3455.910,153.933 3455.896,176.128 3399.963,176.084 3399.973,153.910 " />
<polygon stroke="black" stroke-width="1" fill="rgb(10, 10, 10)" fill-opacity="1" points="3387.748,176.075 3399.963,176.084 3399.957,180.897 3387.741,180.887 " />
<polygon stroke="black" stroke-width="1" fill="rgb(10, 10, 10)" fill-opacity="1" points="3387.741,180.887 3399.957,180.897 3399.917,207.847 3387.697,207.835 " />
<polygon stroke="black" stroke-width="1" fill="rgb(10, 10, 10)" fill-opacity="1" points="3455.872,207.904 3455.869,210.461 3399.911,210.404 3399.917,207.847 " />
<polygon stroke="black" stroke-width="1" fill="rgb(10, 10, 10)" fill-opacity="1" points="3387.690,210.391 3399.911,210.404 3399.903,213.609 3387.681,213.596 " />
<polygon stroke="black" stroke-width="1" fill="rgb(10, 10, 10)" fill-opacity="1" points="3455.866,213.667 3455.866,213.667 3399.895,213.609 3399.903,213.609 " />
<polygon stroke="black" stroke-width="1" fill="rgb(10, 10, 10)" fill-opacity="1" points="3455.893,179.710 3455.866,213.667 3399.895,213.609 3399.944,179.663 " />
<polygon stroke="black" stroke-width="1" fill="rgb(10, 10, 10)" fill-opacity="1" points="3455.913,142.925 3399.965,142.912 3399.958,153.910 3455.910,153.933 " />
<polygon stroke="black" stroke-width="1" fill="rgb(10, 10, 10)" fill-opacity="1" points="3455.910,153.933 3399.973,153.885 3399.965,142.912 3455.913,142.925 " />
<polygon stroke="black" stroke-width="1" fill="rgb(10, 10, 10)" fill-opacity="1" points="3387.725,179.653 3347.004,179.620 3347.017,153.889 3387.738,153.905 " />
<polygon stroke="black" stroke-width="1" fill="rgb(10, 10, 10)" fill-opacity="1" points="3347.004,179.620 3346.930,213.554 3234.464,213.496 3234.829,179.176 " />

</svg>
