<?xml version="1.0" standalone="no"?>
<!DOCTYPE svg PUBLIC "-//W3C//DTD SVG 1.1//EN" 
  "http://www.w3.org/Graphics/SVG/1.1/DTD/svg11.dtd">
<svg width="4096" height="2048" viewBox="0 0 4096 2048"
     xmlns="http://www.w3.org/2000/svg" version="1.1">
<desc>aspade.blend, (Blender 4.3.2)</desc>
<polygon stroke="black" stroke-width="1" fill="rgb(19, 19, 19)" fill-opacity="1" points="3191.483,1686.289 3217.113,1684.998 3238.537,1589.491 " />
<polygon stroke="black" stroke-width="1" fill="rgb(19, 19, 19)" fill-opacity="1" points="3603.609,1688.480 3632.344,1688.529 3639.504,1605.394 " />
<polygon stroke="black" stroke-width="1" fill="rgb(19, 19, 19)" fill-opacity="1" points="3183.340,1720.391 3211.688,1719.541 3214.701,1697.867 3187.229,1699.396 " />
<polygon stroke="black" stroke-width="1" fill="rgb(19, 19, 19)" fill-opacity="1" points="3329.781,1721.666 3420.605,1721.230 3419.196,1698.648 3329.993,1699.165 " />
<polygon stroke="black" stroke-width="1" fill="rgb(19, 19, 19)" fill-opacity="1" points="3418.914,1685.671 3444.012,1686.147 3422.986,1589.817 " />
<polygon stroke="black" stroke-width="1" fill="rgb(19, 19, 19)" fill-opacity="1" points="3061.138,1704.186 3116.156,1692.315 3059.674,1688.093 " />
<polygon stroke="black" stroke-width="1" fill="rgb(19, 19, 19)" fill-opacity="1" points="3330.099,1685.914 3418.914,1685.671 3422.986,1589.817 3330.786,1588.229 " />
<polygon stroke="black" stroke-width="1" fill="rgb(19, 19, 19)" fill-opacity="1" points="3241.914,1684.209 3330.099,1685.914 3330.786,1588.229 3238.537,1589.491 " />
<polygon stroke="black" stroke-width="1" fill="rgb(19, 19, 19)" fill-opacity="1" points="3632.344,1688.529 3660.685,1695.086 3639.504,1605.394 " />
<polygon stroke="black" stroke-width="1" fill="rgb(19, 19, 19)" fill-opacity="1" points="3546.931,1687.949 3603.609,1688.480 3639.504,1605.394 3554.156,1598.158 " />
<polygon stroke="black" stroke-width="1" fill="rgb(19, 19, 19)" fill-opacity="1" points="3062.838,1722.959 3112.930,1723.936 3115.747,1705.612 3061.138,1704.186 " />
<polygon stroke="black" stroke-width="1" fill="rgb(19, 19, 19)" fill-opacity="1" points="3470.058,1686.612 3497.887,1687.047 3504.372,1594.321 3422.986,1589.817 " />
<polygon stroke="black" stroke-width="1" fill="rgb(19, 19, 19)" fill-opacity="1" points="3164.148,1688.095 3191.483,1686.289 3238.537,1589.491 3158.331,1593.276 " />
<polygon stroke="black" stroke-width="1" fill="rgb(19, 19, 19)" fill-opacity="1" points="3444.012,1686.147 3470.058,1686.612 3422.986,1589.817 " />
<polygon stroke="black" stroke-width="1" fill="rgb(19, 19, 19)" fill-opacity="1" points="3706.773,1702.146 3709.571,1669.279 3660.685,1695.086 3658.552,1719.651 " />
<polygon stroke="black" stroke-width="1" fill="rgb(19, 19, 19)" fill-opacity="1" points="3112.930,1723.936 3159.237,1721.631 3163.339,1701.271 3115.747,1705.612 " />
<polygon stroke="black" stroke-width="1" fill="rgb(19, 19, 19)" fill-opacity="1" points="3660.685,1695.086 3709.571,1669.279 3714.456,1611.761 3639.504,1605.394 " />
<polygon stroke="black" stroke-width="1" fill="rgb(19, 19, 19)" fill-opacity="1" points="3497.887,1687.047 3546.931,1687.949 3554.156,1598.158 3504.372,1594.321 " />
<polygon stroke="black" stroke-width="1" fill="rgb(19, 19, 19)" fill-opacity="1" points="3159.237,1721.631 3183.340,1720.391 3187.229,1699.396 3163.339,1701.271 " />
<polygon stroke="black" stroke-width="1" fill="rgb(19, 19, 19)" fill-opacity="1" points="3239.714,1719.270 3329.781,1721.666 3329.993,1699.165 3241.447,1697.091 " />
<polygon stroke="black" stroke-width="1" fill="rgb(19, 19, 19)" fill-opacity="1" points="3629.073,1725.347 3658.552,1719.651 3660.685,1695.086 3631.136,1702.233 " />
<polygon stroke="black" stroke-width="1" fill="rgb(19, 19, 19)" fill-opacity="1" points="3502.388,1724.486 3549.469,1727.074 3546.961,1701.549 3498.433,1700.484 " />
<polygon stroke="black" stroke-width="1" fill="rgb(19, 19, 19)" fill-opacity="1" points="3217.113,1684.998 3241.914,1684.209 3238.537,1589.491 " />
<polygon stroke="black" stroke-width="1" fill="rgb(19, 19, 19)" fill-opacity="1" points="3449.109,1721.845 3477.913,1722.998 3474.146,1699.816 3446.278,1699.152 " />
<polygon stroke="black" stroke-width="1" fill="rgb(19, 19, 19)" fill-opacity="1" points="3211.688,1719.541 3239.714,1719.270 3241.447,1697.091 3214.701,1697.867 " />
<polygon stroke="black" stroke-width="1" fill="rgb(19, 19, 19)" fill-opacity="1" points="3549.469,1727.074 3600.321,1726.103 3600.555,1702.139 3546.961,1701.549 " />
<polygon stroke="black" stroke-width="1" fill="rgb(19, 19, 19)" fill-opacity="1" points="3477.913,1722.998 3502.388,1724.486 3498.433,1700.484 3474.146,1699.816 " />
<polygon stroke="black" stroke-width="1" fill="rgb(19, 19, 19)" fill-opacity="1" points="3420.605,1721.230 3449.109,1721.845 3446.278,1699.152 3419.196,1698.648 " />
<polygon stroke="black" stroke-width="1" fill="rgb(19, 19, 19)" fill-opacity="1" points="3600.321,1726.103 3629.073,1725.347 3631.136,1702.233 3600.555,1702.139 " />
<polygon stroke="black" stroke-width="1" fill="rgb(19, 19, 19)" fill-opacity="1" points="597.449,1507.131 704.257,1506.366 703.684,1456.562 583.359,1458.481 " />
<polygon stroke="black" stroke-width="1" fill="rgb(19, 19, 19)" fill-opacity="1" points="704.257,1506.366 811.068,1507.393 824.025,1458.732 703.684,1456.562 " />
<polygon stroke="black" stroke-width="1" fill="rgb(19, 19, 19)" fill-opacity="1" points="704.618,1569.951 802.752,1568.891 811.068,1507.393 704.257,1506.366 " />
<polygon stroke="black" stroke-width="1" fill="rgb(19, 19, 19)" fill-opacity="1" points="606.487,1568.639 704.618,1569.951 704.257,1506.366 597.449,1507.131 " />
<polygon stroke="black" stroke-width="1" fill="rgb(19, 19, 19)" fill-opacity="1" points="880.125,1518.844 811.068,1507.393 802.752,1568.891 857.132,1550.153 " />
<polygon stroke="black" stroke-width="1" fill="rgb(19, 19, 19)" fill-opacity="1" points="914.914,1458.418 824.025,1458.732 811.068,1507.393 880.125,1518.844 " />
<polygon stroke="black" stroke-width="1" fill="rgb(19, 19, 19)" fill-opacity="1" points="529.129,1518.471 552.232,1549.819 606.487,1568.639 597.449,1507.131 " />
<polygon stroke="black" stroke-width="1" fill="rgb(19, 19, 19)" fill-opacity="1" points="492.433,1458.090 529.129,1518.471 597.449,1507.131 583.359,1458.481 " />
<polygon stroke="black" stroke-width="1" fill="rgb(19, 19, 19)" fill-opacity="1" points="427.231,1490.827 427.201,1555.453 402.121,1555.442 402.150,1492.323 " />
<polygon stroke="black" stroke-width="1" fill="rgb(19, 19, 19)" fill-opacity="1" points="402.150,1492.323 402.121,1555.442 341.658,1555.414 341.685,1496.406 " />
<polygon stroke="black" stroke-width="1" fill="rgb(19, 19, 19)" fill-opacity="1" points="341.685,1496.406 341.658,1555.414 267.952,1555.379 267.977,1500.511 " />
<polygon stroke="black" stroke-width="1" fill="rgb(19, 19, 19)" fill-opacity="1" points="267.977,1500.511 267.952,1555.379 176.653,1555.337 176.675,1505.943 " />
<polygon stroke="black" stroke-width="1" fill="rgb(19, 19, 19)" fill-opacity="1" points="176.675,1505.943 176.653,1555.337 125.802,1557.797 141.079,1511.106 " />
<polygon stroke="black" stroke-width="1" fill="rgb(19, 19, 19)" fill-opacity="1" points="1325.235,1317.166 1313.209,1354.096 1330.568,1354.096 " />
<polygon stroke="black" stroke-width="1" fill="rgb(19, 19, 19)" fill-opacity="1" points="126.195,2026.824 53.023,2026.824 53.022,1917.315 126.194,1917.314 " />
<polygon stroke="black" stroke-width="1" fill="rgb(19, 19, 19)" fill-opacity="1" points="3056.696,1652.653 3109.018,1596.533 3024.442,1603.189 3028.491,1654.146 " />
<polygon stroke="black" stroke-width="1" fill="rgb(19, 19, 19)" fill-opacity="1" points="3714.456,1611.761 3741.560,1614.063 3746.353,1557.628 3719.250,1555.325 " />
<polygon stroke="black" stroke-width="1" fill="rgb(19, 19, 19)" fill-opacity="1" points="3639.504,1605.394 3714.456,1611.761 3719.250,1555.325 3644.297,1548.959 " />
<polygon stroke="black" stroke-width="1" fill="rgb(19, 19, 19)" fill-opacity="1" points="125.802,1557.797 176.653,1555.337 176.631,1600.482 125.782,1600.458 " />
<polygon stroke="black" stroke-width="1" fill="rgb(19, 19, 19)" fill-opacity="1" points="176.653,1555.337 267.952,1555.379 267.932,1600.525 176.631,1600.482 " />
<polygon stroke="black" stroke-width="1" fill="rgb(19, 19, 19)" fill-opacity="1" points="267.952,1555.379 341.658,1555.414 341.637,1600.559 267.932,1600.525 " />
<polygon stroke="black" stroke-width="1" fill="rgb(19, 19, 19)" fill-opacity="1" points="341.658,1555.414 402.121,1555.442 402.100,1600.587 341.637,1600.559 " />
<polygon stroke="black" stroke-width="1" fill="rgb(19, 19, 19)" fill-opacity="1" points="402.121,1555.442 427.201,1555.453 427.182,1600.599 402.100,1600.587 " />
<polygon stroke="black" stroke-width="1" fill="rgb(19, 19, 19)" fill-opacity="1" points="1089.471,1317.167 1041.042,1317.167 1041.042,1354.096 1089.471,1354.096 " />
<polygon stroke="black" stroke-width="1" fill="rgb(19, 19, 19)" fill-opacity="1" points="955.784,1354.097 955.784,1391.055 990.247,1391.055 990.247,1354.097 " />
<polygon stroke="black" stroke-width="1" fill="rgb(19, 19, 19)" fill-opacity="1" points="1246.621,1427.984 1304.205,1427.984 1304.204,1391.054 1246.621,1391.054 " />
<polygon stroke="black" stroke-width="1" fill="rgb(19, 19, 19)" fill-opacity="1" points="1313.210,1391.054 1328.091,1427.984 1330.568,1391.054 " />
<polygon stroke="black" stroke-width="1" fill="rgb(19, 19, 19)" fill-opacity="1" points="1328.091,1427.984 1352.526,1442.869 1340.500,1400.986 " />
<polygon stroke="black" stroke-width="1" fill="rgb(19, 19, 19)" fill-opacity="1" points="126.193,1696.699 177.039,1696.698 177.041,1804.191 126.194,1804.192 " />
<polygon stroke="black" stroke-width="1" fill="rgb(19, 19, 19)" fill-opacity="1" points="177.039,1696.698 268.334,1696.697 268.334,1804.190 177.041,1804.191 " />
<polygon stroke="black" stroke-width="1" fill="rgb(19, 19, 19)" fill-opacity="1" points="268.334,1696.697 342.035,1696.697 342.037,1804.189 268.334,1804.190 " />
<polygon stroke="black" stroke-width="1" fill="rgb(19, 19, 19)" fill-opacity="1" points="342.035,1696.697 402.494,1696.696 402.496,1804.189 342.037,1804.189 " />
<polygon stroke="black" stroke-width="1" fill="rgb(19, 19, 19)" fill-opacity="1" points="402.494,1696.696 424.575,1696.695 424.576,1804.189 402.496,1804.189 " />
<polygon stroke="black" stroke-width="1" fill="rgb(19, 19, 19)" fill-opacity="1" points="126.194,1804.192 177.041,1804.191 177.041,1917.313 126.194,1917.314 " />
<polygon stroke="black" stroke-width="1" fill="rgb(19, 19, 19)" fill-opacity="1" points="177.041,1804.191 268.334,1804.190 268.336,1917.313 177.041,1917.313 " />
<polygon stroke="black" stroke-width="1" fill="rgb(19, 19, 19)" fill-opacity="1" points="268.334,1804.190 342.037,1804.189 342.037,1917.312 268.336,1917.313 " />
<polygon stroke="black" stroke-width="1" fill="rgb(19, 19, 19)" fill-opacity="1" points="342.037,1804.189 402.496,1804.189 402.496,1917.312 342.037,1917.312 " />
<polygon stroke="black" stroke-width="1" fill="rgb(19, 19, 19)" fill-opacity="1" points="402.496,1804.189 424.576,1804.189 424.576,1917.312 402.496,1917.312 " />
<polygon stroke="black" stroke-width="1" fill="rgb(19, 19, 19)" fill-opacity="1" points="126.194,1917.314 177.041,1917.313 177.042,2026.824 126.195,2026.824 " />
<polygon stroke="black" stroke-width="1" fill="rgb(19, 19, 19)" fill-opacity="1" points="177.041,1917.313 268.336,1917.313 268.337,2026.823 177.042,2026.824 " />
<polygon stroke="black" stroke-width="1" fill="rgb(19, 19, 19)" fill-opacity="1" points="268.336,1917.313 342.037,1917.312 342.037,2026.822 268.337,2026.823 " />
<polygon stroke="black" stroke-width="1" fill="rgb(19, 19, 19)" fill-opacity="1" points="342.037,1917.312 402.496,1917.312 402.497,2026.822 342.037,2026.822 " />
<polygon stroke="black" stroke-width="1" fill="rgb(19, 19, 19)" fill-opacity="1" points="402.496,1917.312 424.576,1917.312 424.577,2026.822 402.497,2026.822 " />
<polygon stroke="black" stroke-width="1" fill="rgb(19, 19, 19)" fill-opacity="1" points="573.864,1917.311 573.864,1804.189 715.345,1804.190 715.345,1917.312 " />
<polygon stroke="black" stroke-width="1" fill="rgb(19, 19, 19)" fill-opacity="1" points="820.634,1751.812 715.346,1696.697 856.828,1696.699 856.827,1751.813 " />
<polygon stroke="black" stroke-width="1" fill="rgb(19, 19, 19)" fill-opacity="1" points="573.864,1804.189 573.865,1696.695 715.346,1696.697 715.345,1804.190 " />
<polygon stroke="black" stroke-width="1" fill="rgb(19, 19, 19)" fill-opacity="1" points="715.348,1662.751 856.828,1662.752 856.828,1696.699 715.346,1696.697 " />
<polygon stroke="black" stroke-width="1" fill="rgb(19, 19, 19)" fill-opacity="1" points="715.345,1917.312 715.345,1804.190 820.634,1804.191 820.633,1917.313 " />
<polygon stroke="black" stroke-width="1" fill="rgb(19, 19, 19)" fill-opacity="1" points="573.864,2026.821 573.864,1917.311 715.345,1917.312 715.345,2026.822 " />
<polygon stroke="black" stroke-width="1" fill="rgb(19, 19, 19)" fill-opacity="1" points="427.201,1555.453 472.925,1593.291 472.919,1623.532 427.182,1600.599 " />
<polygon stroke="black" stroke-width="1" fill="rgb(19, 19, 19)" fill-opacity="1" points="715.345,2026.822 715.345,1917.312 820.633,1917.313 820.632,2026.822 " />
<polygon stroke="black" stroke-width="1" fill="rgb(19, 19, 19)" fill-opacity="1" points="573.865,1696.695 573.865,1662.748 715.348,1662.751 715.346,1696.697 " />
<polygon stroke="black" stroke-width="1" fill="rgb(19, 19, 19)" fill-opacity="1" points="424.577,2026.822 424.576,1917.312 472.924,1917.311 472.925,2026.822 " />
<polygon stroke="black" stroke-width="1" fill="rgb(19, 19, 19)" fill-opacity="1" points="424.576,1917.312 424.576,1804.189 472.924,1804.188 472.924,1917.311 " />
<polygon stroke="black" stroke-width="1" fill="rgb(19, 19, 19)" fill-opacity="1" points="424.576,1804.189 424.575,1696.695 472.924,1696.694 472.924,1804.188 " />
<polygon stroke="black" stroke-width="1" fill="rgb(19, 19, 19)" fill-opacity="1" points="3115.747,1705.612 3116.156,1692.315 3061.138,1704.186 " />
<polygon stroke="black" stroke-width="1" fill="rgb(19, 19, 19)" fill-opacity="1" points="3632.344,1688.529 3631.136,1702.233 3660.685,1695.086 " />
<polygon stroke="black" stroke-width="1" fill="rgb(19, 19, 19)" fill-opacity="1" points="3418.914,1685.671 3330.099,1685.914 3329.993,1699.165 3419.196,1698.648 " />
<polygon stroke="black" stroke-width="1" fill="rgb(19, 19, 19)" fill-opacity="1" points="3546.931,1687.949 3497.887,1687.047 3498.433,1700.484 3546.961,1701.549 " />
<polygon stroke="black" stroke-width="1" fill="rgb(19, 19, 19)" fill-opacity="1" points="3470.058,1686.612 3444.012,1686.147 3446.278,1699.152 3474.146,1699.816 " />
<polygon stroke="black" stroke-width="1" fill="rgb(19, 19, 19)" fill-opacity="1" points="3603.609,1688.480 3546.931,1687.949 3546.961,1701.549 3600.555,1702.139 " />
<polygon stroke="black" stroke-width="1" fill="rgb(19, 19, 19)" fill-opacity="1" points="3444.012,1686.147 3418.914,1685.671 3419.196,1698.648 3446.278,1699.152 " />
<polygon stroke="black" stroke-width="1" fill="rgb(19, 19, 19)" fill-opacity="1" points="3632.344,1688.529 3603.609,1688.480 3600.555,1702.139 3631.136,1702.233 " />
<polygon stroke="black" stroke-width="1" fill="rgb(19, 19, 19)" fill-opacity="1" points="3115.747,1705.612 3163.339,1701.271 3164.148,1688.095 3116.156,1692.315 " />
<polygon stroke="black" stroke-width="1" fill="rgb(19, 19, 19)" fill-opacity="1" points="3187.229,1699.396 3214.701,1697.867 3217.113,1684.998 3191.483,1686.289 " />
<polygon stroke="black" stroke-width="1" fill="rgb(19, 19, 19)" fill-opacity="1" points="3163.339,1701.271 3187.229,1699.396 3191.483,1686.289 3164.148,1688.095 " />
<polygon stroke="black" stroke-width="1" fill="rgb(19, 19, 19)" fill-opacity="1" points="3214.701,1697.867 3241.447,1697.091 3241.914,1684.209 3217.113,1684.998 " />
<polygon stroke="black" stroke-width="1" fill="rgb(19, 19, 19)" fill-opacity="1" points="3497.887,1687.047 3470.058,1686.612 3474.146,1699.816 3498.433,1700.484 " />
<polygon stroke="black" stroke-width="1" fill="rgb(19, 19, 19)" fill-opacity="1" points="3241.447,1697.091 3329.993,1699.165 3330.099,1685.914 3241.914,1684.209 " />
<polygon stroke="black" stroke-width="1" fill="rgb(19, 19, 19)" fill-opacity="1" points="3116.156,1692.315 3164.148,1688.095 3158.331,1593.276 3109.018,1596.533 " />
<polygon stroke="black" stroke-width="1" fill="rgb(19, 19, 19)" fill-opacity="1" points="442.215,1454.986 493.356,1530.091 529.129,1518.471 492.433,1458.090 " />
<polygon stroke="black" stroke-width="1" fill="rgb(19, 19, 19)" fill-opacity="1" points="493.356,1530.091 530.951,1567.440 552.232,1549.819 529.129,1518.471 " />
<polygon stroke="black" stroke-width="1" fill="rgb(19, 19, 19)" fill-opacity="1" points="966.812,1454.986 914.914,1458.418 880.125,1518.844 916.193,1530.386 " />
<polygon stroke="black" stroke-width="1" fill="rgb(19, 19, 19)" fill-opacity="1" points="916.193,1530.386 880.125,1518.844 857.132,1550.153 878.636,1567.773 " />
<polygon stroke="black" stroke-width="1" fill="rgb(19, 19, 19)" fill-opacity="1" points="608.262,1602.093 704.766,1603.321 704.618,1569.951 606.487,1568.639 " />
<polygon stroke="black" stroke-width="1" fill="rgb(19, 19, 19)" fill-opacity="1" points="704.766,1603.321 801.265,1602.328 802.752,1568.891 704.618,1569.951 " />
<polygon stroke="black" stroke-width="1" fill="rgb(19, 19, 19)" fill-opacity="1" points="878.636,1567.773 857.132,1550.153 802.752,1568.891 801.265,1602.328 " />
<polygon stroke="black" stroke-width="1" fill="rgb(19, 19, 19)" fill-opacity="1" points="552.232,1549.819 530.951,1567.440 608.262,1602.093 606.487,1568.639 " />
<polygon stroke="black" stroke-width="1" fill="rgb(19, 19, 19)" fill-opacity="1" points="1006.113,1696.701 957.766,1696.700 1006.113,1668.741 " />
<polygon stroke="black" stroke-width="1" fill="rgb(19, 19, 19)" fill-opacity="1" points="3051.712,1356.101 3051.435,1419.554 2914.561,1418.955 2914.838,1355.503 " />
<polygon stroke="black" stroke-width="1" fill="rgb(19, 19, 19)" fill-opacity="1" points="1683.719,1723.556 1683.526,1663.079 1791.790,1662.739 1791.955,1723.230 " />
<polygon stroke="black" stroke-width="1" fill="rgb(19, 19, 19)" fill-opacity="1" points="1683.526,1663.079 1683.244,1581.363 1791.549,1580.971 1791.790,1662.739 " />
<polygon stroke="black" stroke-width="1" fill="rgb(19, 19, 19)" fill-opacity="1" points="1791.955,1723.230 1791.790,1662.739 1952.684,1662.362 1952.762,1722.867 " />
<polygon stroke="black" stroke-width="1" fill="rgb(19, 19, 19)" fill-opacity="1" points="1791.790,1662.739 1791.549,1580.971 1952.570,1580.538 1952.684,1662.362 " />
<polygon stroke="black" stroke-width="1" fill="rgb(19, 19, 19)" fill-opacity="1" points="1952.762,1722.867 1952.684,1662.362 2123.565,1662.315 2123.526,1722.816 " />
<polygon stroke="black" stroke-width="1" fill="rgb(19, 19, 19)" fill-opacity="1" points="1952.684,1662.362 1952.570,1580.538 2123.629,1580.519 2123.565,1662.315 " />
<polygon stroke="black" stroke-width="1" fill="rgb(19, 19, 19)" fill-opacity="1" points="2123.526,1722.816 2123.565,1662.315 2265.519,1662.545 2265.393,1723.032 " />
<polygon stroke="black" stroke-width="1" fill="rgb(19, 19, 19)" fill-opacity="1" points="2123.565,1662.315 2123.629,1580.519 2265.700,1580.766 2265.519,1662.545 " />
<polygon stroke="black" stroke-width="1" fill="rgb(19, 19, 19)" fill-opacity="1" points="2265.393,1723.032 2265.519,1662.545 2367.146,1662.809 2366.970,1723.286 " />
<polygon stroke="black" stroke-width="1" fill="rgb(19, 19, 19)" fill-opacity="1" points="2265.519,1662.545 2265.700,1580.766 2367.393,1581.055 2367.146,1662.809 " />
<polygon stroke="black" stroke-width="1" fill="rgb(19, 19, 19)" fill-opacity="1" points="2366.970,1723.286 2367.146,1662.809 2442.225,1663.048 2442.019,1723.528 " />
<polygon stroke="black" stroke-width="1" fill="rgb(19, 19, 19)" fill-opacity="1" points="2367.146,1662.809 2367.393,1581.055 2442.508,1581.307 2442.225,1663.048 " />
<polygon stroke="black" stroke-width="1" fill="rgb(19, 19, 19)" fill-opacity="1" points="2442.019,1723.528 2442.225,1663.048 2514.373,1663.307 2514.147,1723.791 " />
<polygon stroke="black" stroke-width="1" fill="rgb(19, 19, 19)" fill-opacity="1" points="2442.225,1663.048 2442.508,1581.307 2514.680,1581.576 2514.373,1663.307 " />
<polygon stroke="black" stroke-width="1" fill="rgb(19, 19, 19)" fill-opacity="1" points="2514.147,1723.791 2514.373,1663.307 2632.212,1663.774 2631.966,1724.257 " />
<polygon stroke="black" stroke-width="1" fill="rgb(19, 19, 19)" fill-opacity="1" points="2514.373,1663.307 2514.680,1581.576 2632.544,1582.048 2632.212,1663.774 " />
<polygon stroke="black" stroke-width="1" fill="rgb(19, 19, 19)" fill-opacity="1" points="2631.966,1724.257 2632.212,1663.774 2788.084,1664.427 2787.827,1724.911 " />
<polygon stroke="black" stroke-width="1" fill="rgb(19, 19, 19)" fill-opacity="1" points="2632.212,1663.774 2632.544,1582.048 2788.431,1582.708 2788.084,1664.427 " />
<polygon stroke="black" stroke-width="1" fill="rgb(19, 19, 19)" fill-opacity="1" points="2787.827,1724.911 2788.084,1664.427 2900.873,1664.911 2900.613,1725.395 " />
<polygon stroke="black" stroke-width="1" fill="rgb(19, 19, 19)" fill-opacity="1" points="2788.084,1664.427 2788.431,1582.708 2901.224,1583.192 2900.873,1664.911 " />
<polygon stroke="black" stroke-width="1" fill="rgb(19, 19, 19)" fill-opacity="1" points="2788.677,1525.447 2788.740,1510.566 2901.535,1511.054 2901.471,1525.934 " />
<polygon stroke="black" stroke-width="1" fill="rgb(19, 19, 19)" fill-opacity="1" points="2900.613,1725.395 2900.873,1664.911 2978.858,1665.246 2978.598,1725.730 " />
<polygon stroke="black" stroke-width="1" fill="rgb(19, 19, 19)" fill-opacity="1" points="2900.873,1664.911 2901.224,1583.192 2979.211,1583.528 2978.858,1665.246 " />
<polygon stroke="black" stroke-width="1" fill="rgb(19, 19, 19)" fill-opacity="1" points="2123.629,1580.519 1952.570,1580.538 1952.546,1563.327 2123.643,1563.310 " />
<polygon stroke="black" stroke-width="1" fill="rgb(19, 19, 19)" fill-opacity="1" points="2514.680,1581.576 2442.508,1581.307 2442.569,1564.118 2514.746,1564.389 " />
<polygon stroke="black" stroke-width="1" fill="rgb(19, 19, 19)" fill-opacity="1" points="1952.570,1580.538 1791.549,1580.971 1791.493,1563.774 1952.546,1563.327 " />
<polygon stroke="black" stroke-width="1" fill="rgb(19, 19, 19)" fill-opacity="1" points="1791.549,1580.971 1683.244,1581.363 1683.180,1564.179 1791.493,1563.774 " />
<polygon stroke="black" stroke-width="1" fill="rgb(19, 19, 19)" fill-opacity="1" points="2632.544,1582.048 2514.680,1581.576 2514.746,1564.389 2632.615,1564.864 " />
<polygon stroke="black" stroke-width="1" fill="rgb(19, 19, 19)" fill-opacity="1" points="2442.508,1581.307 2367.393,1581.055 2367.447,1563.860 2442.569,1564.118 " />
<polygon stroke="black" stroke-width="1" fill="rgb(19, 19, 19)" fill-opacity="1" points="2788.431,1582.708 2632.544,1582.048 2632.615,1564.864 2788.504,1565.526 " />
<polygon stroke="black" stroke-width="1" fill="rgb(19, 19, 19)" fill-opacity="1" points="2367.393,1581.055 2265.700,1580.766 2265.741,1563.566 2367.447,1563.860 " />
<polygon stroke="black" stroke-width="1" fill="rgb(19, 19, 19)" fill-opacity="1" points="2265.700,1580.766 2123.629,1580.519 2123.643,1563.310 2265.741,1563.566 " />
<polygon stroke="black" stroke-width="1" fill="rgb(19, 19, 19)" fill-opacity="1" points="2367.447,1563.860 2265.741,1563.566 2265.840,1523.436 2367.578,1523.748 " />
<polygon stroke="black" stroke-width="1" fill="rgb(19, 19, 19)" fill-opacity="1" points="2265.741,1563.566 2123.643,1563.310 2123.682,1523.154 2265.840,1523.436 " />
<polygon stroke="black" stroke-width="1" fill="rgb(19, 19, 19)" fill-opacity="1" points="2514.746,1564.389 2442.569,1564.118 2442.715,1524.016 2514.903,1524.295 " />
<polygon stroke="black" stroke-width="1" fill="rgb(19, 19, 19)" fill-opacity="1" points="2123.643,1563.310 1952.546,1563.327 1952.488,1523.155 2123.682,1523.154 " />
<polygon stroke="black" stroke-width="1" fill="rgb(19, 19, 19)" fill-opacity="1" points="2442.569,1564.118 2367.447,1563.860 2367.578,1523.748 2442.715,1524.016 " />
<polygon stroke="black" stroke-width="1" fill="rgb(19, 19, 19)" fill-opacity="1" points="1952.546,1563.327 1791.493,1563.774 1791.350,1523.654 1952.488,1523.155 " />
<polygon stroke="black" stroke-width="1" fill="rgb(19, 19, 19)" fill-opacity="1" points="1791.493,1563.774 1683.180,1564.179 1683.020,1524.099 1791.350,1523.654 " />
<polygon stroke="black" stroke-width="1" fill="rgb(19, 19, 19)" fill-opacity="1" points="2632.615,1564.864 2514.746,1564.389 2514.903,1524.295 2632.781,1524.779 " />
<polygon stroke="black" stroke-width="1" fill="rgb(19, 19, 19)" fill-opacity="1" points="2788.504,1565.526 2632.615,1564.864 2632.781,1524.779 2788.677,1525.447 " />
<polygon stroke="black" stroke-width="1" fill="rgb(19, 19, 19)" fill-opacity="1" points="2285.111,1777.974 2285.164,1767.625 2425.898,1767.935 2425.531,1778.671 " />
<polygon stroke="black" stroke-width="1" fill="rgb(19, 19, 19)" fill-opacity="1" points="1358.147,1894.191 1358.235,1907.584 1226.993,1908.445 1226.614,1895.468 " />
<polygon stroke="black" stroke-width="1" fill="rgb(19, 19, 19)" fill-opacity="1" points="2284.673,1865.727 2285.111,1777.974 2425.531,1778.671 2425.095,1866.406 " />
<polygon stroke="black" stroke-width="1" fill="rgb(19, 19, 19)" fill-opacity="1" points="591.129,1272.045 559.365,1272.042 559.352,1374.321 591.118,1374.325 " />
<polygon stroke="black" stroke-width="1" fill="rgb(19, 19, 19)" fill-opacity="1" points="2791.817,1347.159 2810.622,1355.047 2645.865,1417.779 " />
<polygon stroke="black" stroke-width="1" fill="rgb(19, 19, 19)" fill-opacity="1" points="2514.903,1524.295 2515.122,1470.140 2633.011,1470.638 2632.781,1524.779 " />
<polygon stroke="black" stroke-width="1" fill="rgb(19, 19, 19)" fill-opacity="1" points="2442.715,1524.016 2442.923,1469.847 2515.122,1470.140 2514.903,1524.295 " />
<polygon stroke="black" stroke-width="1" fill="rgb(19, 19, 19)" fill-opacity="1" points="2367.578,1523.748 2367.766,1469.559 2442.923,1469.847 2442.715,1524.016 " />
<polygon stroke="black" stroke-width="1" fill="rgb(19, 19, 19)" fill-opacity="1" points="2265.840,1523.436 2265.990,1469.215 2367.766,1469.559 2367.578,1523.748 " />
<polygon stroke="black" stroke-width="1" fill="rgb(19, 19, 19)" fill-opacity="1" points="2123.682,1523.154 2123.743,1468.883 2265.990,1469.215 2265.840,1523.436 " />
<polygon stroke="black" stroke-width="1" fill="rgb(19, 19, 19)" fill-opacity="1" points="1952.488,1523.155 1952.397,1468.844 2123.743,1468.883 2123.682,1523.154 " />
<polygon stroke="black" stroke-width="1" fill="rgb(19, 19, 19)" fill-opacity="1" points="1791.350,1523.654 1791.126,1469.452 1952.397,1468.844 1952.488,1523.155 " />
<polygon stroke="black" stroke-width="1" fill="rgb(19, 19, 19)" fill-opacity="1" points="1803.841,1448.791 1803.690,1416.543 1965.054,1415.868 1965.112,1448.183 " />
<polygon stroke="black" stroke-width="1" fill="rgb(19, 19, 19)" fill-opacity="1" points="1803.690,1416.543 1802.873,1292.576 1964.788,1291.128 1965.054,1415.868 " />
<polygon stroke="black" stroke-width="1" fill="rgb(19, 19, 19)" fill-opacity="1" points="1802.873,1292.576 1884.526,1252.282 1951.128,1251.553 1964.788,1291.128 " />
<polygon stroke="black" stroke-width="1" fill="rgb(19, 19, 19)" fill-opacity="1" points="1177.042,1721.237 1170.295,1705.279 1309.303,1701.734 1309.703,1717.854 " />
<polygon stroke="black" stroke-width="1" fill="rgb(19, 19, 19)" fill-opacity="1" points="2420.821,1907.981 2420.710,2027.793 2288.286,2027.657 2288.504,1907.807 " />
<polygon stroke="black" stroke-width="1" fill="rgb(19, 19, 19)" fill-opacity="1" points="1965.112,1448.183 1965.054,1415.868 2136.502,1415.930 2136.458,1448.223 " />
<polygon stroke="black" stroke-width="1" fill="rgb(19, 19, 19)" fill-opacity="1" points="1965.054,1415.868 1964.788,1291.128 2136.731,1291.582 2136.502,1415.930 " />
<polygon stroke="black" stroke-width="1" fill="rgb(19, 19, 19)" fill-opacity="1" points="1964.788,1291.128 1964.094,1205.644 2137.119,1206.735 2136.731,1291.582 " />
<polygon stroke="black" stroke-width="1" fill="rgb(19, 19, 19)" fill-opacity="1" points="1589.071,1861.732 1588.213,1770.659 1766.012,1774.659 1765.357,1862.843 " />
<polygon stroke="black" stroke-width="1" fill="rgb(19, 19, 19)" fill-opacity="1" points="1588.213,1770.659 1589.233,1760.176 1766.171,1764.199 1766.012,1774.659 " />
<polygon stroke="black" stroke-width="1" fill="rgb(19, 19, 19)" fill-opacity="1" points="2008.127,1887.662 2009.149,1901.310 1842.647,1904.112 1842.473,1890.748 " />
<polygon stroke="black" stroke-width="1" fill="rgb(19, 19, 19)" fill-opacity="1" points="2009.149,1901.310 2006.389,2023.459 1843.314,2023.840 1842.647,1904.112 " />
<polygon stroke="black" stroke-width="1" fill="rgb(19, 19, 19)" fill-opacity="1" points="2136.458,1448.223 2136.502,1415.930 2278.801,1416.294 2278.704,1448.554 " />
<polygon stroke="black" stroke-width="1" fill="rgb(19, 19, 19)" fill-opacity="1" points="2136.502,1415.930 2136.731,1291.582 2279.280,1292.246 2278.801,1416.294 " />
<polygon stroke="black" stroke-width="1" fill="rgb(19, 19, 19)" fill-opacity="1" points="2136.731,1291.582 2137.119,1206.735 2279.745,1207.625 2279.280,1292.246 " />
<polygon stroke="black" stroke-width="1" fill="rgb(19, 19, 19)" fill-opacity="1" points="1765.357,1862.843 1766.012,1774.659 1911.265,1775.833 1910.669,1863.750 " />
<polygon stroke="black" stroke-width="1" fill="rgb(19, 19, 19)" fill-opacity="1" points="1766.012,1774.659 1766.171,1764.199 1911.343,1765.456 1911.265,1775.833 " />
<polygon stroke="black" stroke-width="1" fill="rgb(19, 19, 19)" fill-opacity="1" points="1842.473,1890.748 1842.647,1904.112 1707.444,1905.269 1707.343,1891.874 " />
<polygon stroke="black" stroke-width="1" fill="rgb(19, 19, 19)" fill-opacity="1" points="1842.647,1904.112 1843.314,2023.840 1708.198,2024.648 1707.444,1905.269 " />
<polygon stroke="black" stroke-width="1" fill="rgb(19, 19, 19)" fill-opacity="1" points="2278.704,1448.554 2278.801,1416.294 2380.601,1416.662 2380.481,1448.898 " />
<polygon stroke="black" stroke-width="1" fill="rgb(19, 19, 19)" fill-opacity="1" points="2278.801,1416.294 2279.280,1292.246 2381.133,1292.732 2380.601,1416.662 " />
<polygon stroke="black" stroke-width="1" fill="rgb(19, 19, 19)" fill-opacity="1" points="2279.280,1292.246 2279.745,1207.625 2381.576,1208.206 2381.133,1292.732 " />
<polygon stroke="black" stroke-width="1" fill="rgb(19, 19, 19)" fill-opacity="1" points="1910.669,1863.750 1911.265,1775.833 2014.949,1776.503 2014.420,1864.342 " />
<polygon stroke="black" stroke-width="1" fill="rgb(19, 19, 19)" fill-opacity="1" points="1911.265,1775.833 1911.343,1765.456 2015.014,1766.145 2014.949,1776.503 " />
<polygon stroke="black" stroke-width="1" fill="rgb(19, 19, 19)" fill-opacity="1" points="1707.343,1891.874 1707.444,1905.269 1610.661,1905.926 1610.572,1892.533 " />
<polygon stroke="black" stroke-width="1" fill="rgb(19, 19, 19)" fill-opacity="1" points="1707.444,1905.269 1708.198,2024.648 1611.439,2025.277 1610.661,1905.926 " />
<polygon stroke="black" stroke-width="1" fill="rgb(19, 19, 19)" fill-opacity="1" points="2380.481,1448.898 2380.601,1416.662 2455.766,1416.965 2455.637,1449.186 " />
<polygon stroke="black" stroke-width="1" fill="rgb(19, 19, 19)" fill-opacity="1" points="2380.601,1416.662 2381.133,1292.732 2456.313,1293.090 2455.766,1416.965 " />
<polygon stroke="black" stroke-width="1" fill="rgb(19, 19, 19)" fill-opacity="1" points="2381.133,1292.732 2381.576,1208.206 2456.742,1208.610 2456.313,1293.090 " />
<polygon stroke="black" stroke-width="1" fill="rgb(19, 19, 19)" fill-opacity="1" points="2014.420,1864.342 2014.949,1776.503 2091.492,1776.953 2091.001,1864.754 " />
<polygon stroke="black" stroke-width="1" fill="rgb(19, 19, 19)" fill-opacity="1" points="2014.949,1776.503 2015.014,1766.145 2091.551,1766.601 2091.492,1776.953 " />
<polygon stroke="black" stroke-width="1" fill="rgb(19, 19, 19)" fill-opacity="1" points="1610.572,1892.533 1610.661,1905.926 1539.163,1906.397 1539.075,1893.005 " />
<polygon stroke="black" stroke-width="1" fill="rgb(19, 19, 19)" fill-opacity="1" points="1610.661,1905.926 1611.439,2025.277 1539.945,2025.746 1539.163,1906.397 " />
<polygon stroke="black" stroke-width="1" fill="rgb(19, 19, 19)" fill-opacity="1" points="2455.637,1449.186 2455.766,1416.965 2527.972,1417.269 2527.836,1449.479 " />
<polygon stroke="black" stroke-width="1" fill="rgb(19, 19, 19)" fill-opacity="1" points="2455.766,1416.965 2456.313,1293.090 2528.526,1293.432 2527.972,1417.269 " />
<polygon stroke="black" stroke-width="1" fill="rgb(19, 19, 19)" fill-opacity="1" points="2456.313,1293.090 2456.742,1208.610 2528.943,1208.982 2528.526,1293.432 " />
<polygon stroke="black" stroke-width="1" fill="rgb(19, 19, 19)" fill-opacity="1" points="2091.001,1864.754 2091.492,1776.953 2165.027,1777.357 2164.563,1865.133 " />
<polygon stroke="black" stroke-width="1" fill="rgb(19, 19, 19)" fill-opacity="1" points="2091.492,1776.953 2091.551,1766.601 2165.082,1767.007 2165.027,1777.357 " />
<polygon stroke="black" stroke-width="1" fill="rgb(19, 19, 19)" fill-opacity="1" points="1539.075,1893.005 1539.163,1906.397 1470.456,1906.848 1470.368,1893.456 " />
<polygon stroke="black" stroke-width="1" fill="rgb(19, 19, 19)" fill-opacity="1" points="1539.163,1906.397 1539.945,2025.746 1471.239,2026.196 1470.456,1906.848 " />
<polygon stroke="black" stroke-width="1" fill="rgb(19, 19, 19)" fill-opacity="1" points="2527.836,1449.479 2527.972,1417.269 2645.865,1417.779 2645.726,1449.977 " />
<polygon stroke="black" stroke-width="1" fill="rgb(19, 19, 19)" fill-opacity="1" points="2527.972,1417.269 2528.526,1293.432 2646.426,1293.984 2645.865,1417.779 " />
<polygon stroke="black" stroke-width="1" fill="rgb(19, 19, 19)" fill-opacity="1" points="2528.526,1293.432 2528.943,1208.982 2646.832,1209.565 2646.426,1293.984 " />
<polygon stroke="black" stroke-width="1" fill="rgb(19, 19, 19)" fill-opacity="1" points="2164.563,1865.133 2165.027,1777.357 2285.111,1777.974 2284.673,1865.727 " />
<polygon stroke="black" stroke-width="1" fill="rgb(19, 19, 19)" fill-opacity="1" points="2165.027,1777.357 2165.082,1767.007 2285.164,1767.625 2285.111,1777.974 " />
<polygon stroke="black" stroke-width="1" fill="rgb(19, 19, 19)" fill-opacity="1" points="1470.368,1893.456 1470.456,1906.848 1358.235,1907.584 1358.147,1894.191 " />
<polygon stroke="black" stroke-width="1" fill="rgb(19, 19, 19)" fill-opacity="1" points="1470.456,1906.848 1471.239,2026.196 1359.018,2026.932 1358.235,1907.584 " />
<polygon stroke="black" stroke-width="1" fill="rgb(19, 19, 19)" fill-opacity="1" points="2784.254,1294.622 2646.426,1293.984 2646.832,1209.565 2784.657,1210.231 " />
<polygon stroke="black" stroke-width="1" fill="rgb(19, 19, 19)" fill-opacity="1" points="856.828,1696.699 957.766,1696.700 957.765,1751.814 856.827,1751.813 " />
<polygon stroke="black" stroke-width="1" fill="rgb(19, 19, 19)" fill-opacity="1" points="649.598,1272.052 629.609,1272.050 629.597,1374.329 649.586,1374.331 " />
<polygon stroke="black" stroke-width="1" fill="rgb(19, 19, 19)" fill-opacity="1" points="2914.561,1418.955 2645.865,1417.779 2831.808,1355.140 2914.838,1355.503 " />
<polygon stroke="black" stroke-width="1" fill="rgb(19, 19, 19)" fill-opacity="1" points="1358.235,1907.584 1359.018,2026.932 1227.776,2027.793 1226.993,1908.445 " />
<polygon stroke="black" stroke-width="1" fill="rgb(19, 19, 19)" fill-opacity="1" points="435.744,1360.381 317.488,1360.381 317.488,1374.313 436.458,1374.313 " />
<polygon stroke="black" stroke-width="1" fill="rgb(19, 19, 19)" fill-opacity="1" points="435.744,1360.381 436.458,1374.313 559.352,1374.321 447.587,1355.361 " />
<polygon stroke="black" stroke-width="1" fill="rgb(19, 19, 19)" fill-opacity="1" points="455.740,1349.662 447.587,1355.361 559.352,1374.321 " />
<polygon stroke="black" stroke-width="1" fill="rgb(19, 19, 19)" fill-opacity="1" points="2784.097,1328.286 2645.865,1417.779 2646.426,1293.984 2784.254,1294.622 " />
<polygon stroke="black" stroke-width="1" fill="rgb(19, 19, 19)" fill-opacity="1" points="727.947,1272.061 649.598,1272.052 649.586,1374.331 806.801,1374.349 " />
<polygon stroke="black" stroke-width="1" fill="rgb(19, 19, 19)" fill-opacity="1" points="479.730,1272.031 455.740,1349.662 559.352,1374.321 559.365,1272.042 " />
<polygon stroke="black" stroke-width="1" fill="rgb(19, 19, 19)" fill-opacity="1" points="3057.049,1320.206 3048.376,1339.363 3008.300,1339.190 3008.383,1319.995 " />
<polygon stroke="black" stroke-width="1" fill="rgb(19, 19, 19)" fill-opacity="1" points="629.597,1374.329 629.609,1272.050 610.369,1272.048 610.357,1374.327 " />
<polygon stroke="black" stroke-width="1" fill="rgb(19, 19, 19)" fill-opacity="1" points="610.357,1374.327 610.369,1272.048 591.129,1272.045 591.118,1374.325 " />
<polygon stroke="black" stroke-width="1" fill="rgb(19, 19, 19)" fill-opacity="1" points="2645.865,1417.779 2810.622,1355.047 2831.808,1355.140 " />
<polygon stroke="black" stroke-width="1" fill="rgb(19, 19, 19)" fill-opacity="1" points="1791.126,1469.452 1791.350,1523.654 1683.020,1524.099 1682.781,1469.970 " />
<polygon stroke="black" stroke-width="1" fill="rgb(19, 19, 19)" fill-opacity="1" points="1802.873,1292.576 1803.690,1416.543 1695.331,1417.119 1694.578,1293.446 " />
<polygon stroke="black" stroke-width="1" fill="rgb(19, 19, 19)" fill-opacity="1" points="1253.425,1868.848 1177.042,1721.237 1309.703,1717.854 1313.599,1867.282 " />
<polygon stroke="black" stroke-width="1" fill="rgb(19, 19, 19)" fill-opacity="1" points="2418.925,1895.112 2420.821,1907.981 2288.504,1907.807 2288.512,1894.960 " />
<polygon stroke="black" stroke-width="1" fill="rgb(19, 19, 19)" fill-opacity="1" points="1801.906,1208.253 1802.873,1292.576 1694.578,1293.446 1693.925,1209.203 " />
<polygon stroke="black" stroke-width="1" fill="rgb(19, 19, 19)" fill-opacity="1" points="1803.690,1416.543 1803.841,1448.791 1695.496,1449.309 1695.331,1417.119 " />
<polygon stroke="black" stroke-width="1" fill="rgb(19, 19, 19)" fill-opacity="1" points="2632.781,1524.779 2633.011,1470.638 2788.740,1510.566 2788.677,1525.447 " />
<polygon stroke="black" stroke-width="1" fill="rgb(19, 19, 19)" fill-opacity="1" points="2901.298,1566.011 2901.471,1525.934 2967.333,1526.219 2967.160,1566.295 " />
<polygon stroke="black" stroke-width="1" fill="rgb(19, 19, 19)" fill-opacity="1" points="2788.504,1565.526 2788.677,1525.447 2901.471,1525.934 2901.298,1566.011 " />
<polygon stroke="black" stroke-width="1" fill="rgb(19, 19, 19)" fill-opacity="1" points="3057.688,1172.426 3057.218,1280.959 3008.553,1280.749 3009.022,1172.215 " />
<polygon stroke="black" stroke-width="1" fill="rgb(19, 19, 19)" fill-opacity="1" points="3057.218,1280.959 3057.049,1320.206 3008.383,1319.995 3008.553,1280.749 " />
<polygon stroke="black" stroke-width="1" fill="rgb(19, 19, 19)" fill-opacity="1" points="2979.523,1511.392 2901.535,1511.054 2901.706,1471.807 2979.693,1472.145 " />
<polygon stroke="black" stroke-width="1" fill="rgb(19, 19, 19)" fill-opacity="1" points="3108.371,1102.307 3194.001,992.243 3187.828,1102.651 " />
<polygon stroke="black" stroke-width="1" fill="rgb(19, 19, 19)" fill-opacity="1" points="2914.561,1418.955 3051.435,1419.554 3051.295,1451.744 2914.420,1451.146 " />
<polygon stroke="black" stroke-width="1" fill="rgb(19, 19, 19)" fill-opacity="1" points="515.895,836.224 559.344,801.028 538.122,776.535 497.626,814.242 " />
<polygon stroke="black" stroke-width="1" fill="rgb(19, 19, 19)" fill-opacity="1" points="388.380,739.764 401.277,691.015 371.779,684.760 363.392,735.005 " />
<polygon stroke="black" stroke-width="1" fill="rgb(19, 19, 19)" fill-opacity="1" points="473.275,789.345 509.007,748.232 467.492,718.084 441.285,762.789 " />
<polygon stroke="black" stroke-width="1" fill="rgb(19, 19, 19)" fill-opacity="1" points="363.392,735.005 371.779,684.760 287.192,679.083 284.704,732.717 " />
<polygon stroke="black" stroke-width="1" fill="rgb(19, 19, 19)" fill-opacity="1" points="441.285,762.789 467.492,718.084 433.359,701.541 414.368,748.876 " />
<polygon stroke="black" stroke-width="1" fill="rgb(19, 19, 19)" fill-opacity="1" points="534.064,862.924 581.063,829.862 559.344,801.028 515.895,836.224 " />
<polygon stroke="black" stroke-width="1" fill="rgb(19, 19, 19)" fill-opacity="1" points="497.626,814.242 538.122,776.535 509.007,748.232 473.275,789.345 " />
<polygon stroke="black" stroke-width="1" fill="rgb(19, 19, 19)" fill-opacity="1" points="414.368,748.876 433.359,701.541 401.277,691.015 388.380,739.764 " />
<polygon stroke="black" stroke-width="1" fill="rgb(19, 19, 19)" fill-opacity="1" points="581.063,829.862 534.064,862.924 551.516,890.665 600.634,858.801 " />
<polygon stroke="black" stroke-width="1" fill="rgb(19, 19, 19)" fill-opacity="1" points="1683.244,1581.363 1683.526,1663.079 1624.432,1663.280 1624.145,1581.580 " />
<polygon stroke="black" stroke-width="1" fill="rgb(19, 19, 19)" fill-opacity="1" points="1682.781,1469.970 1683.020,1524.099 1623.929,1524.341 1623.712,1470.248 " />
<polygon stroke="black" stroke-width="1" fill="rgb(19, 19, 19)" fill-opacity="1" points="1683.020,1524.099 1683.180,1564.179 1624.082,1564.403 1623.929,1524.341 " />
<polygon stroke="black" stroke-width="1" fill="rgb(19, 19, 19)" fill-opacity="1" points="1683.180,1564.179 1683.244,1581.363 1624.145,1581.580 1624.082,1564.403 " />
<polygon stroke="black" stroke-width="1" fill="rgb(19, 19, 19)" fill-opacity="1" points="1624.082,1564.403 1624.145,1581.580 1572.498,1581.767 1572.436,1564.593 " />
<polygon stroke="black" stroke-width="1" fill="rgb(19, 19, 19)" fill-opacity="1" points="1623.929,1524.341 1624.082,1564.403 1572.436,1564.593 1572.289,1524.538 " />
<polygon stroke="black" stroke-width="1" fill="rgb(19, 19, 19)" fill-opacity="1" points="1624.145,1581.580 1624.432,1663.280 1572.783,1663.457 1572.498,1581.767 " />
<polygon stroke="black" stroke-width="1" fill="rgb(19, 19, 19)" fill-opacity="1" points="1623.712,1470.248 1623.929,1524.341 1572.289,1524.538 1572.081,1470.448 " />
<polygon stroke="black" stroke-width="1" fill="rgb(19, 19, 19)" fill-opacity="1" points="363.392,735.005 284.704,732.717 284.322,767.226 360.272,767.205 " />
<polygon stroke="black" stroke-width="1" fill="rgb(19, 19, 19)" fill-opacity="1" points="480.370,839.641 450.137,860.810 474.811,896.638 506.329,879.510 " />
<polygon stroke="black" stroke-width="1" fill="rgb(19, 19, 19)" fill-opacity="1" points="551.516,890.665 522.455,906.232 541.800,941.950 573.248,927.690 " />
<polygon stroke="black" stroke-width="1" fill="rgb(19, 19, 19)" fill-opacity="1" points="473.275,789.345 441.285,762.789 423.514,788.313 480.370,839.641 " />
<polygon stroke="black" stroke-width="1" fill="rgb(19, 19, 19)" fill-opacity="1" points="388.380,739.764 363.392,735.005 360.272,767.205 " />
<polygon stroke="black" stroke-width="1" fill="rgb(19, 19, 19)" fill-opacity="1" points="515.895,836.224 497.626,814.242 480.370,839.641 " />
<polygon stroke="black" stroke-width="1" fill="rgb(19, 19, 19)" fill-opacity="1" points="522.455,906.232 506.329,879.510 474.811,896.638 489.227,922.563 " />
<polygon stroke="black" stroke-width="1" fill="rgb(19, 19, 19)" fill-opacity="1" points="497.626,814.242 473.275,789.345 480.370,839.641 " />
<polygon stroke="black" stroke-width="1" fill="rgb(19, 19, 19)" fill-opacity="1" points="441.285,762.789 414.368,748.876 423.514,788.313 " />
<polygon stroke="black" stroke-width="1" fill="rgb(19, 19, 19)" fill-opacity="1" points="2096.340,1151.893 2067.158,1151.893 2067.158,1184.177 2096.340,1184.177 " />
<polygon stroke="black" stroke-width="1" fill="rgb(19, 19, 19)" fill-opacity="1" points="2116.961,1151.893 2096.340,1151.893 2096.340,1184.177 2116.961,1184.177 " />
<polygon stroke="black" stroke-width="1" fill="rgb(19, 19, 19)" fill-opacity="1" points="2026.056,1151.893 1987.390,1151.893 1987.390,1184.177 2026.056,1184.177 " />
<polygon stroke="black" stroke-width="1" fill="rgb(19, 19, 19)" fill-opacity="1" points="1987.390,1151.893 1927.497,1151.893 1927.497,1184.177 1987.390,1184.177 " />
<polygon stroke="black" stroke-width="1" fill="rgb(19, 19, 19)" fill-opacity="1" points="1927.497,1151.893 1870.128,1151.893 1870.128,1184.177 1927.497,1184.177 " />
<polygon stroke="black" stroke-width="1" fill="rgb(19, 19, 19)" fill-opacity="1" points="1495.929,1564.874 1495.980,1581.915 1434.922,1573.785 1451.764,1567.891 " />
<polygon stroke="black" stroke-width="1" fill="rgb(19, 19, 19)" fill-opacity="1" points="1495.782,1524.819 1495.929,1564.874 1451.764,1567.891 1451.655,1525.055 " />
<polygon stroke="black" stroke-width="1" fill="rgb(19, 19, 19)" fill-opacity="1" points="1496.636,1470.739 1496.796,1512.191 1436.354,1490.160 1421.191,1471.031 " />
<polygon stroke="black" stroke-width="1" fill="rgb(19, 19, 19)" fill-opacity="1" points="1434.799,1525.145 1451.655,1525.055 1451.764,1567.891 1434.922,1573.785 " />
<polygon stroke="black" stroke-width="1" fill="rgb(19, 19, 19)" fill-opacity="1" points="1572.783,1663.457 1527.151,1635.436 1495.980,1581.915 1572.498,1581.767 " />
<polygon stroke="black" stroke-width="1" fill="rgb(19, 19, 19)" fill-opacity="1" points="1693.925,1209.203 1694.578,1293.446 1635.542,1293.846 1634.947,1209.625 " />
<polygon stroke="black" stroke-width="1" fill="rgb(19, 19, 19)" fill-opacity="1" points="2288.512,1894.960 2288.504,1907.807 2185.478,1907.740 2185.395,1894.960 " />
<polygon stroke="black" stroke-width="1" fill="rgb(19, 19, 19)" fill-opacity="1" points="2288.504,1907.807 2288.286,2027.657 2184.733,2027.401 2185.478,1907.740 " />
<polygon stroke="black" stroke-width="1" fill="rgb(19, 19, 19)" fill-opacity="1" points="1313.599,1867.282 1309.703,1717.854 1419.858,1715.208 1423.828,1864.390 " />
<polygon stroke="black" stroke-width="1" fill="rgb(19, 19, 19)" fill-opacity="1" points="1309.703,1717.854 1309.303,1701.734 1419.531,1699.079 1419.858,1715.208 " />
<polygon stroke="black" stroke-width="1" fill="rgb(19, 19, 19)" fill-opacity="1" points="339.023,1210.601 466.314,1210.165 466.390,1232.291 338.952,1232.729 " />
<polygon stroke="black" stroke-width="1" fill="rgb(19, 19, 19)" fill-opacity="1" points="192.688,1214.871 339.023,1210.601 338.952,1232.729 325.728,1236.839 " />
<polygon stroke="black" stroke-width="1" fill="rgb(19, 19, 19)" fill-opacity="1" points="206.533,1416.658 199.468,1313.923 317.515,1252.067 292.340,1416.052 " />
<polygon stroke="black" stroke-width="1" fill="rgb(19, 19, 19)" fill-opacity="1" points="317.515,1252.067 199.468,1313.923 192.688,1214.871 325.728,1236.839 " />
<polygon stroke="black" stroke-width="1" fill="rgb(19, 19, 19)" fill-opacity="1" points="1572.081,1470.448 1572.289,1524.538 1496.796,1512.191 1496.636,1470.739 " />
<polygon stroke="black" stroke-width="1" fill="rgb(19, 19, 19)" fill-opacity="1" points="1572.289,1524.538 1572.436,1564.593 1495.929,1564.874 1495.782,1524.819 " />
<polygon stroke="black" stroke-width="1" fill="rgb(19, 19, 19)" fill-opacity="1" points="1572.436,1564.593 1572.498,1581.767 1495.980,1581.915 1495.929,1564.874 " />
<polygon stroke="black" stroke-width="1" fill="rgb(19, 19, 19)" fill-opacity="1" points="414.368,748.876 388.380,739.764 360.272,767.205 423.514,788.313 " />
<polygon stroke="black" stroke-width="1" fill="rgb(19, 19, 19)" fill-opacity="1" points="1495.980,1581.915 1527.151,1635.436 1477.389,1602.418 " />
<polygon stroke="black" stroke-width="1" fill="rgb(19, 19, 19)" fill-opacity="1" points="534.064,862.924 506.329,879.510 522.455,906.232 551.516,890.665 " />
<polygon stroke="black" stroke-width="1" fill="rgb(19, 19, 19)" fill-opacity="1" points="360.272,767.205 284.322,767.226 284.554,806.290 348.737,804.864 " />
<polygon stroke="black" stroke-width="1" fill="rgb(19, 19, 19)" fill-opacity="1" points="423.514,788.313 360.272,767.205 348.737,804.864 406.971,823.211 " />
<polygon stroke="black" stroke-width="1" fill="rgb(19, 19, 19)" fill-opacity="1" points="480.370,839.641 423.514,788.313 406.971,823.211 450.137,860.810 " />
<polygon stroke="black" stroke-width="1" fill="rgb(19, 19, 19)" fill-opacity="1" points="522.455,906.232 489.227,922.563 502.883,950.033 541.800,941.950 " />
<polygon stroke="black" stroke-width="1" fill="rgb(19, 19, 19)" fill-opacity="1" points="2067.158,1184.177 2067.158,1151.893 2026.056,1151.893 2026.056,1184.177 " />
<polygon stroke="black" stroke-width="1" fill="rgb(19, 19, 19)" fill-opacity="1" points="534.064,862.924 515.895,836.224 480.370,839.641 506.329,879.510 " />
<polygon stroke="black" stroke-width="1" fill="rgb(19, 19, 19)" fill-opacity="1" points="1695.496,1449.309 1636.427,1449.587 1636.266,1417.436 1695.331,1417.119 " />
<polygon stroke="black" stroke-width="1" fill="rgb(19, 19, 19)" fill-opacity="1" points="1695.331,1417.119 1636.266,1417.436 1635.542,1293.846 1694.578,1293.446 " />
<polygon stroke="black" stroke-width="1" fill="rgb(19, 19, 19)" fill-opacity="1" points="69.292,1218.601 74.804,1314.515 47.312,1314.670 46.661,1219.576 " />
<polygon stroke="black" stroke-width="1" fill="rgb(19, 19, 19)" fill-opacity="1" points="74.804,1314.515 80.614,1417.396 47.857,1417.560 47.312,1314.670 " />
<polygon stroke="black" stroke-width="1" fill="rgb(19, 19, 19)" fill-opacity="1" points="192.688,1214.871 199.468,1313.923 74.804,1314.515 69.292,1218.601 " />
<polygon stroke="black" stroke-width="1" fill="rgb(19, 19, 19)" fill-opacity="1" points="199.468,1313.923 206.533,1416.658 80.614,1417.396 74.804,1314.515 " />
<polygon stroke="black" stroke-width="1" fill="rgb(19, 19, 19)" fill-opacity="1" points="1194.021,1255.557 1193.902,1224.892 1306.232,1224.458 1280.443,1255.223 " />
<polygon stroke="black" stroke-width="1" fill="rgb(19, 19, 19)" fill-opacity="1" points="1280.443,1255.223 1306.232,1224.458 1418.561,1224.024 1363.190,1291.185 " />
<polygon stroke="black" stroke-width="1" fill="rgb(19, 19, 19)" fill-opacity="1" points="1398.856,1337.237 1486.096,1331.481 1496.324,1390.097 1418.032,1396.110 " />
<polygon stroke="black" stroke-width="1" fill="rgb(19, 19, 19)" fill-opacity="1" points="1572.081,1470.448 1496.636,1470.739 1496.516,1439.674 1558.815,1439.434 " />
<polygon stroke="black" stroke-width="1" fill="rgb(19, 19, 19)" fill-opacity="1" points="1572.081,1470.448 1558.815,1439.434 1586.196,1376.414 1623.712,1470.248 " />
<polygon stroke="black" stroke-width="1" fill="rgb(19, 19, 19)" fill-opacity="1" points="1421.071,1439.966 1496.516,1439.674 1496.636,1470.739 1421.191,1471.031 " />
<polygon stroke="black" stroke-width="1" fill="rgb(19, 19, 19)" fill-opacity="1" points="1418.032,1396.110 1496.324,1390.097 1496.516,1439.674 1421.071,1439.966 " />
<polygon stroke="black" stroke-width="1" fill="rgb(19, 19, 19)" fill-opacity="1" points="1558.815,1439.434 1496.516,1439.674 1496.324,1390.097 1586.196,1376.414 " />
<polygon stroke="black" stroke-width="1" fill="rgb(19, 19, 19)" fill-opacity="1" points="1363.190,1291.185 1459.983,1289.768 1486.096,1331.481 1398.856,1337.237 " />
<polygon stroke="black" stroke-width="1" fill="rgb(19, 19, 19)" fill-opacity="1" points="1527.387,1223.603 1459.983,1289.768 1363.190,1291.185 1418.561,1224.024 " />
<polygon stroke="black" stroke-width="1" fill="rgb(19, 19, 19)" fill-opacity="1" points="1527.387,1223.603 1551.296,1289.747 1486.096,1331.481 1459.983,1289.768 " />
<polygon stroke="black" stroke-width="1" fill="rgb(19, 19, 19)" fill-opacity="1" points="1551.296,1289.747 1586.196,1376.414 1496.324,1390.097 1486.096,1331.481 " />
<polygon stroke="black" stroke-width="1" fill="rgb(19, 19, 19)" fill-opacity="1" points="1418.561,1224.024 1306.232,1224.458 1306.102,1190.935 1418.431,1190.501 " />
<polygon stroke="black" stroke-width="1" fill="rgb(19, 19, 19)" fill-opacity="1" points="1527.387,1223.603 1418.561,1224.024 1418.431,1190.501 1531.864,1190.062 " />
<polygon stroke="black" stroke-width="1" fill="rgb(19, 19, 19)" fill-opacity="1" points="1306.232,1224.458 1193.902,1224.892 1193.773,1191.369 1306.102,1190.935 " />
<polygon stroke="black" stroke-width="1" fill="rgb(19, 19, 19)" fill-opacity="1" points="800.071,1282.962 800.109,1292.768 781.484,1283.034 " />
<polygon stroke="black" stroke-width="1" fill="rgb(19, 19, 19)" fill-opacity="1" points="110.383,730.074 111.035,680.754 31.784,687.939 31.292,729.118 " />
<polygon stroke="black" stroke-width="1" fill="rgb(19, 19, 19)" fill-opacity="1" points="109.944,765.376 110.383,730.074 31.292,729.118 30.878,764.456 " />
<polygon stroke="black" stroke-width="1" fill="rgb(19, 19, 19)" fill-opacity="1" points="896.377,1192.520 896.506,1226.042 762.678,1226.560 762.548,1193.037 " />
<polygon stroke="black" stroke-width="1" fill="rgb(19, 19, 19)" fill-opacity="1" points="896.566,1241.375 896.625,1256.707 799.971,1257.080 803.633,1242.501 " />
<polygon stroke="black" stroke-width="1" fill="rgb(19, 19, 19)" fill-opacity="1" points="30.878,764.456 30.429,804.107 109.492,804.988 109.944,765.376 " />
<polygon stroke="black" stroke-width="1" fill="rgb(19, 19, 19)" fill-opacity="1" points="1115.898,1241.293 1126.991,1255.816 1113.582,1259.101 1090.041,1255.959 " />
<polygon stroke="black" stroke-width="1" fill="rgb(19, 19, 19)" fill-opacity="1" points="197.047,822.751 197.183,805.906 109.492,804.988 109.313,821.879 " />
<polygon stroke="black" stroke-width="1" fill="rgb(19, 19, 19)" fill-opacity="1" points="1780.096,1151.893 1780.096,1184.177 1816.467,1184.177 1816.467,1151.893 " />
<polygon stroke="black" stroke-width="1" fill="rgb(19, 19, 19)" fill-opacity="1" points="1045.264,1240.799 1045.323,1256.132 896.625,1256.707 896.566,1241.375 " />
<polygon stroke="black" stroke-width="1" fill="rgb(19, 19, 19)" fill-opacity="1" points="1193.773,1191.369 1193.902,1224.892 1045.204,1225.467 1045.075,1191.944 " />
<polygon stroke="black" stroke-width="1" fill="rgb(19, 19, 19)" fill-opacity="1" points="1045.075,1191.944 1045.204,1225.467 896.506,1226.042 896.377,1192.520 " />
<polygon stroke="black" stroke-width="1" fill="rgb(19, 19, 19)" fill-opacity="1" points="284.322,767.226 284.704,732.717 198.067,731.267 197.562,766.425 " />
<polygon stroke="black" stroke-width="1" fill="rgb(19, 19, 19)" fill-opacity="1" points="197.562,766.425 198.067,731.267 110.383,730.074 109.944,765.376 " />
<polygon stroke="black" stroke-width="1" fill="rgb(19, 19, 19)" fill-opacity="1" points="284.704,732.717 287.192,679.083 199.088,677.924 198.067,731.267 " />
<polygon stroke="black" stroke-width="1" fill="rgb(19, 19, 19)" fill-opacity="1" points="198.067,731.267 199.088,677.924 111.035,680.754 110.383,730.074 " />
<polygon stroke="black" stroke-width="1" fill="rgb(19, 19, 19)" fill-opacity="1" points="196.753,860.707 196.707,866.501 208.462,862.563 " />
<polygon stroke="black" stroke-width="1" fill="rgb(19, 19, 19)" fill-opacity="1" points="800.071,1282.962 896.725,1282.588 896.763,1292.394 800.109,1292.768 " />
<polygon stroke="black" stroke-width="1" fill="rgb(19, 19, 19)" fill-opacity="1" points="1113.582,1259.101 1065.265,1284.936 1045.423,1282.014 1090.041,1255.959 " />
<polygon stroke="black" stroke-width="1" fill="rgb(19, 19, 19)" fill-opacity="1" points="1045.204,1225.467 1045.264,1240.799 896.566,1241.375 896.506,1226.042 " />
<polygon stroke="black" stroke-width="1" fill="rgb(19, 19, 19)" fill-opacity="1" points="1193.902,1224.892 1115.898,1241.293 1045.264,1240.799 1045.204,1225.467 " />
<polygon stroke="black" stroke-width="1" fill="rgb(19, 19, 19)" fill-opacity="1" points="196.866,845.423 197.047,822.751 109.313,821.879 109.078,844.594 " />
<polygon stroke="black" stroke-width="1" fill="rgb(19, 19, 19)" fill-opacity="1" points="245.122,845.777 229.882,828.644 211.841,845.528 237.140,847.515 " />
<polygon stroke="black" stroke-width="1" fill="rgb(19, 19, 19)" fill-opacity="1" points="1667.469,1184.177 1667.469,1151.893 1603.308,1151.893 1603.308,1184.177 " />
<polygon stroke="black" stroke-width="1" fill="rgb(19, 19, 19)" fill-opacity="1" points="109.078,844.594 109.313,821.879 63.138,827.063 51.971,843.994 " />
<polygon stroke="black" stroke-width="1" fill="rgb(19, 19, 19)" fill-opacity="1" points="1766.178,1184.177 1766.178,1151.893 1667.469,1151.893 1667.469,1184.177 " />
<polygon stroke="black" stroke-width="1" fill="rgb(19, 19, 19)" fill-opacity="1" points="51.971,843.994 63.138,827.063 30.429,804.107 29.998,843.759 " />
<polygon stroke="black" stroke-width="1" fill="rgb(19, 19, 19)" fill-opacity="1" points="108.925,859.883 51.810,859.290 51.750,865.084 108.868,865.676 " />
<polygon stroke="black" stroke-width="1" fill="rgb(19, 19, 19)" fill-opacity="1" points="762.678,1226.560 803.633,1242.501 799.971,1257.080 762.797,1257.224 " />
<polygon stroke="black" stroke-width="1" fill="rgb(19, 19, 19)" fill-opacity="1" points="1090.041,1255.959 1045.423,1282.014 1045.323,1256.132 " />
<polygon stroke="black" stroke-width="1" fill="rgb(19, 19, 19)" fill-opacity="1" points="229.882,828.644 284.554,806.290 197.183,805.906 197.047,822.751 " />
<polygon stroke="black" stroke-width="1" fill="rgb(19, 19, 19)" fill-opacity="1" points="803.633,1242.501 762.678,1226.560 896.506,1226.042 896.566,1241.375 " />
<polygon stroke="black" stroke-width="1" fill="rgb(19, 19, 19)" fill-opacity="1" points="896.725,1282.588 1045.423,1282.014 1045.461,1291.819 896.763,1292.394 " />
<polygon stroke="black" stroke-width="1" fill="rgb(19, 19, 19)" fill-opacity="1" points="196.753,860.707 208.462,862.563 237.140,847.515 211.841,845.528 " />
<polygon stroke="black" stroke-width="1" fill="rgb(19, 19, 19)" fill-opacity="1" points="1589.358,1184.177 1603.308,1184.177 1603.308,1151.893 1589.358,1151.893 " />
<polygon stroke="black" stroke-width="1" fill="rgb(19, 19, 19)" fill-opacity="1" points="196.753,860.707 108.925,859.883 108.868,865.676 196.707,866.501 " />
<polygon stroke="black" stroke-width="1" fill="rgb(19, 19, 19)" fill-opacity="1" points="1065.265,1284.936 1045.461,1291.819 1045.423,1282.014 " />
<polygon stroke="black" stroke-width="1" fill="rgb(19, 19, 19)" fill-opacity="1" points="40.824,859.175 51.750,865.084 51.810,859.290 " />
<polygon stroke="black" stroke-width="1" fill="rgb(19, 19, 19)" fill-opacity="1" points="29.998,843.759 40.824,859.175 51.810,859.290 51.971,843.994 " />
<polygon stroke="black" stroke-width="1" fill="rgb(19, 19, 19)" fill-opacity="1" points="1870.128,1184.177 1870.128,1151.893 1825.632,1151.893 1825.632,1184.177 " />
<polygon stroke="black" stroke-width="1" fill="rgb(19, 19, 19)" fill-opacity="1" points="196.866,845.423 109.078,844.594 108.925,859.883 196.753,860.707 " />
<polygon stroke="black" stroke-width="1" fill="rgb(19, 19, 19)" fill-opacity="1" points="1568.205,1184.177 1589.358,1184.177 1589.358,1151.893 1568.205,1151.893 " />
<polygon stroke="black" stroke-width="1" fill="rgb(19, 19, 19)" fill-opacity="1" points="1766.178,1151.893 1766.178,1184.177 1780.096,1184.177 1780.096,1151.893 " />
<polygon stroke="black" stroke-width="1" fill="rgb(19, 19, 19)" fill-opacity="1" points="896.625,1256.707 1045.323,1256.132 1045.423,1282.014 896.725,1282.588 " />
<polygon stroke="black" stroke-width="1" fill="rgb(19, 19, 19)" fill-opacity="1" points="109.078,844.594 51.971,843.994 51.810,859.290 108.925,859.883 " />
<polygon stroke="black" stroke-width="1" fill="rgb(19, 19, 19)" fill-opacity="1" points="799.971,1257.080 896.625,1256.707 896.725,1282.588 800.071,1282.962 " />
<polygon stroke="black" stroke-width="1" fill="rgb(19, 19, 19)" fill-opacity="1" points="284.923,845.800 284.554,806.290 229.882,828.644 245.122,845.777 " />
<polygon stroke="black" stroke-width="1" fill="rgb(19, 19, 19)" fill-opacity="1" points="799.971,1257.080 800.071,1282.962 781.484,1283.034 762.797,1257.224 " />
<polygon stroke="black" stroke-width="1" fill="rgb(19, 19, 19)" fill-opacity="1" points="229.882,828.644 197.047,822.751 196.866,845.423 211.841,845.528 " />
<polygon stroke="black" stroke-width="1" fill="rgb(19, 19, 19)" fill-opacity="1" points="196.866,845.423 196.753,860.707 211.841,845.528 " />
<polygon stroke="black" stroke-width="1" fill="rgb(19, 19, 19)" fill-opacity="1" points="1816.467,1151.893 1816.467,1184.177 1825.632,1184.177 1825.632,1151.893 " />
<polygon stroke="black" stroke-width="1" fill="rgb(19, 19, 19)" fill-opacity="1" points="1115.898,1241.293 1193.902,1224.892 1194.021,1255.557 1126.991,1255.816 " />
<polygon stroke="black" stroke-width="1" fill="rgb(19, 19, 19)" fill-opacity="1" points="1045.264,1240.799 1115.898,1241.293 1090.041,1255.959 1045.323,1256.132 " />
<polygon stroke="black" stroke-width="1" fill="rgb(19, 19, 19)" fill-opacity="1" points="1568.205,1184.177 1568.205,1151.893 1543.528,1151.893 1543.528,1184.177 " />
<polygon stroke="black" stroke-width="1" fill="rgb(19, 19, 19)" fill-opacity="1" points="31.292,729.118 9.483,714.245 9.311,728.858 " />
<polygon stroke="black" stroke-width="1" fill="rgb(19, 19, 19)" fill-opacity="1" points="30.878,764.456 31.292,729.118 9.311,728.858 8.898,764.204 " />
<polygon stroke="black" stroke-width="1" fill="rgb(19, 19, 19)" fill-opacity="1" points="762.678,1226.560 762.797,1257.224 725.622,1257.368 725.504,1226.703 " />
<polygon stroke="black" stroke-width="1" fill="rgb(19, 19, 19)" fill-opacity="1" points="29.998,843.759 30.429,804.107 8.452,803.863 8.019,843.519 " />
<polygon stroke="black" stroke-width="1" fill="rgb(19, 19, 19)" fill-opacity="1" points="762.548,1193.037 762.678,1226.560 725.504,1226.703 725.374,1193.181 " />
<polygon stroke="black" stroke-width="1" fill="rgb(19, 19, 19)" fill-opacity="1" points="474.811,896.638 450.137,860.810 417.523,882.537 441.828,913.409 " />
<polygon stroke="black" stroke-width="1" fill="rgb(19, 19, 19)" fill-opacity="1" points="109.492,804.988 197.183,805.906 197.562,766.425 109.944,765.376 " />
<polygon stroke="black" stroke-width="1" fill="rgb(19, 19, 19)" fill-opacity="1" points="8.452,803.863 30.429,804.107 30.878,764.456 8.898,764.204 " />
<polygon stroke="black" stroke-width="1" fill="rgb(19, 19, 19)" fill-opacity="1" points="502.883,950.033 489.227,922.563 454.999,938.311 463.574,956.330 " />
<polygon stroke="black" stroke-width="1" fill="rgb(19, 19, 19)" fill-opacity="1" points="406.971,823.211 348.737,804.864 336.629,844.894 389.126,860.565 " />
<polygon stroke="black" stroke-width="1" fill="rgb(19, 19, 19)" fill-opacity="1" points="489.227,922.563 474.811,896.638 441.828,913.409 454.999,938.311 " />
<polygon stroke="black" stroke-width="1" fill="rgb(19, 19, 19)" fill-opacity="1" points="348.737,804.864 284.554,806.290 284.923,845.800 336.629,844.894 " />
<polygon stroke="black" stroke-width="1" fill="rgb(19, 19, 19)" fill-opacity="1" points="109.492,804.988 30.429,804.107 63.138,827.063 109.313,821.879 " />
<polygon stroke="black" stroke-width="1" fill="rgb(19, 19, 19)" fill-opacity="1" points="197.183,805.906 284.554,806.290 284.322,767.226 197.562,766.425 " />
<polygon stroke="black" stroke-width="1" fill="rgb(19, 19, 19)" fill-opacity="1" points="450.137,860.810 406.971,823.211 389.126,860.565 417.523,882.537 " />
<polygon stroke="black" stroke-width="1" fill="rgb(19, 19, 19)" fill-opacity="1" points="1434.922,1573.785 1495.980,1581.915 1477.389,1602.418 " />
<polygon stroke="black" stroke-width="1" fill="rgb(19, 19, 19)" fill-opacity="1" points="9.483,714.245 31.292,729.118 31.784,687.939 9.751,691.682 " />
<polygon stroke="black" stroke-width="1" fill="rgb(19, 19, 19)" fill-opacity="1" points="2185.395,1894.960 2185.478,1907.740 2114.983,1908.659 2114.376,1895.935 " />
<polygon stroke="black" stroke-width="1" fill="rgb(19, 19, 19)" fill-opacity="1" points="1964.788,1291.128 1951.128,1251.553 1950.742,1205.786 1964.094,1205.644 " />
<polygon stroke="black" stroke-width="1" fill="rgb(19, 19, 19)" fill-opacity="1" points="1950.742,1205.786 1951.128,1251.553 1884.526,1252.282 1883.926,1206.757 " />
<polygon stroke="black" stroke-width="1" fill="rgb(19, 19, 19)" fill-opacity="1" points="1883.926,1206.757 1884.526,1252.282 1802.873,1292.576 1801.906,1208.253 " />
<polygon stroke="black" stroke-width="1" fill="rgb(19, 19, 19)" fill-opacity="1" points="1575.468,1861.876 1507.393,1862.866 1507.750,1717.686 1573.885,1764.653 " />
<polygon stroke="black" stroke-width="1" fill="rgb(19, 19, 19)" fill-opacity="1" points="1507.750,1717.686 1507.842,1702.211 1575.769,1754.299 1573.885,1764.653 " />
<polygon stroke="black" stroke-width="1" fill="rgb(19, 19, 19)" fill-opacity="1" points="2009.149,1901.310 2008.127,1887.662 2021.723,1888.533 2023.539,1901.822 " />
<polygon stroke="black" stroke-width="1" fill="rgb(19, 19, 19)" fill-opacity="1" points="1589.233,1760.176 1588.213,1770.659 1573.885,1764.653 1575.769,1754.299 " />
<polygon stroke="black" stroke-width="1" fill="rgb(19, 19, 19)" fill-opacity="1" points="1588.213,1770.659 1589.071,1861.732 1575.468,1861.876 1573.885,1764.653 " />
<polygon stroke="black" stroke-width="1" fill="rgb(19, 19, 19)" fill-opacity="1" points="2006.389,2023.459 2009.149,1901.310 2023.539,1901.822 2020.206,2023.805 " />
<polygon stroke="black" stroke-width="1" fill="rgb(19, 19, 19)" fill-opacity="1" points="2103.181,1908.219 2100.330,2026.217 2020.206,2023.805 2023.539,1901.822 " />
<polygon stroke="black" stroke-width="1" fill="rgb(19, 19, 19)" fill-opacity="1" points="1423.828,1864.390 1419.858,1715.208 1495.624,1713.924 1507.393,1862.866 " />
<polygon stroke="black" stroke-width="1" fill="rgb(19, 19, 19)" fill-opacity="1" points="1419.858,1715.208 1419.531,1699.079 1495.607,1697.865 1495.624,1713.924 " />
<polygon stroke="black" stroke-width="1" fill="rgb(19, 19, 19)" fill-opacity="1" points="2185.478,1907.740 2184.733,2027.401 2112.430,2026.492 2114.983,1908.659 " />
<polygon stroke="black" stroke-width="1" fill="rgb(19, 19, 19)" fill-opacity="1" points="1495.624,1713.924 1507.750,1717.686 1507.393,1862.866 " />
<polygon stroke="black" stroke-width="1" fill="rgb(19, 19, 19)" fill-opacity="1" points="2100.330,2026.217 2103.181,1908.219 2114.983,1908.659 2112.430,2026.492 " />
<polygon stroke="black" stroke-width="1" fill="rgb(19, 19, 19)" fill-opacity="1" points="2103.181,1908.219 2102.224,1895.533 2114.376,1895.935 2114.983,1908.659 " />
<polygon stroke="black" stroke-width="1" fill="rgb(19, 19, 19)" fill-opacity="1" points="1507.842,1702.211 1507.750,1717.686 1495.624,1713.924 1495.607,1697.865 " />
<polygon stroke="black" stroke-width="1" fill="rgb(19, 19, 19)" fill-opacity="1" points="2102.224,1895.533 2103.181,1908.219 2023.539,1901.822 2021.723,1888.533 " />
<polygon stroke="black" stroke-width="1" fill="rgb(19, 19, 19)" fill-opacity="1" points="1006.115,1626.470 957.767,1635.217 957.768,1593.307 1006.115,1555.489 " />
<polygon stroke="black" stroke-width="1" fill="rgb(19, 19, 19)" fill-opacity="1" points="472.924,1804.188 472.924,1696.694 573.865,1696.695 573.864,1804.189 " />
<polygon stroke="black" stroke-width="1" fill="rgb(19, 19, 19)" fill-opacity="1" points="472.925,2026.822 472.924,1917.311 573.864,1917.311 573.864,2026.821 " />
<polygon stroke="black" stroke-width="1" fill="rgb(19, 19, 19)" fill-opacity="1" points="1304.205,1427.984 1328.091,1427.984 1313.210,1391.054 1304.204,1391.054 " />
<polygon stroke="black" stroke-width="1" fill="rgb(19, 19, 19)" fill-opacity="1" points="472.924,1917.311 472.924,1804.188 573.864,1804.189 573.864,1917.311 " />
<polygon stroke="black" stroke-width="1" fill="rgb(19, 19, 19)" fill-opacity="1" points="957.768,1593.307 957.767,1635.217 856.828,1662.752 856.829,1628.806 " />
<polygon stroke="black" stroke-width="1" fill="rgb(19, 19, 19)" fill-opacity="1" points="957.766,1696.700 1006.113,1696.701 1006.112,1751.814 " />
<polygon stroke="black" stroke-width="1" fill="rgb(19, 19, 19)" fill-opacity="1" points="573.865,1662.748 472.919,1623.532 472.925,1593.291 573.867,1628.802 " />
<polygon stroke="black" stroke-width="1" fill="rgb(19, 19, 19)" fill-opacity="1" points="856.828,1662.752 957.767,1635.217 957.766,1696.700 856.828,1696.699 " />
<polygon stroke="black" stroke-width="1" fill="rgb(19, 19, 19)" fill-opacity="1" points="957.767,1635.217 1006.115,1626.470 1006.113,1668.741 957.766,1696.700 " />
<polygon stroke="black" stroke-width="1" fill="rgb(19, 19, 19)" fill-opacity="1" points="715.348,1662.751 573.865,1662.748 573.867,1628.802 715.348,1628.804 " />
<polygon stroke="black" stroke-width="1" fill="rgb(19, 19, 19)" fill-opacity="1" points="856.828,1662.752 715.348,1662.751 715.348,1628.804 856.829,1628.806 " />
<polygon stroke="black" stroke-width="1" fill="rgb(19, 19, 19)" fill-opacity="1" points="715.345,1804.190 715.346,1696.697 820.634,1751.812 820.634,1804.191 " />
<polygon stroke="black" stroke-width="1" fill="rgb(19, 19, 19)" fill-opacity="1" points="1006.112,1751.814 957.765,1751.814 957.766,1696.700 " />
<polygon stroke="black" stroke-width="1" fill="rgb(19, 19, 19)" fill-opacity="1" points="573.865,1696.695 472.924,1696.694 472.919,1623.532 573.865,1662.748 " />
<polygon stroke="black" stroke-width="1" fill="rgb(19, 19, 19)" fill-opacity="1" points="955.863,1804.192 955.864,1751.813 998.309,1751.814 998.307,1804.192 " />
<polygon stroke="black" stroke-width="1" fill="rgb(19, 19, 19)" fill-opacity="1" points="955.863,1804.192 955.862,1917.313 856.827,1917.313 856.827,1804.191 " />
<polygon stroke="black" stroke-width="1" fill="rgb(19, 19, 19)" fill-opacity="1" points="1143.022,1804.193 1177.784,1758.592 1184.561,1774.954 1184.561,1804.193 " />
<polygon stroke="black" stroke-width="1" fill="rgb(19, 19, 19)" fill-opacity="1" points="1143.023,1751.815 1161.422,1751.815 1177.784,1758.592 1143.022,1804.193 " />
<polygon stroke="black" stroke-width="1" fill="rgb(19, 19, 19)" fill-opacity="1" points="1143.022,1804.193 1184.561,1804.193 1184.561,1917.315 1143.021,1917.315 " />
<polygon stroke="black" stroke-width="1" fill="rgb(19, 19, 19)" fill-opacity="1" points="1143.021,1917.315 1184.561,1917.315 1184.559,2026.824 1143.020,2026.824 " />
<polygon stroke="black" stroke-width="1" fill="rgb(19, 19, 19)" fill-opacity="1" points="998.309,1751.814 1143.023,1751.815 1143.022,1804.193 998.307,1804.192 " />
<polygon stroke="black" stroke-width="1" fill="rgb(19, 19, 19)" fill-opacity="1" points="998.307,1804.192 1143.022,1804.193 1143.021,1917.315 998.306,1917.314 " />
<polygon stroke="black" stroke-width="1" fill="rgb(19, 19, 19)" fill-opacity="1" points="998.306,1917.314 1143.021,1917.315 1143.020,2026.824 998.305,2026.823 " />
<polygon stroke="black" stroke-width="1" fill="rgb(19, 19, 19)" fill-opacity="1" points="955.861,2026.823 955.862,1917.313 998.306,1917.314 998.305,2026.823 " />
<polygon stroke="black" stroke-width="1" fill="rgb(19, 19, 19)" fill-opacity="1" points="955.862,1917.313 955.861,2026.823 856.825,2026.822 856.827,1917.313 " />
<polygon stroke="black" stroke-width="1" fill="rgb(19, 19, 19)" fill-opacity="1" points="955.862,1917.313 955.863,1804.192 998.307,1804.192 998.306,1917.314 " />
<polygon stroke="black" stroke-width="1" fill="rgb(19, 19, 19)" fill-opacity="1" points="820.633,1917.313 820.634,1804.191 856.827,1804.191 856.827,1917.313 " />
<polygon stroke="black" stroke-width="1" fill="rgb(19, 19, 19)" fill-opacity="1" points="820.634,1804.191 820.634,1751.812 856.827,1751.813 856.827,1804.191 " />
<polygon stroke="black" stroke-width="1" fill="rgb(19, 19, 19)" fill-opacity="1" points="856.827,1751.813 955.864,1751.813 955.863,1804.192 856.827,1804.191 " />
<polygon stroke="black" stroke-width="1" fill="rgb(19, 19, 19)" fill-opacity="1" points="820.632,2026.822 820.633,1917.313 856.827,1917.313 856.825,2026.822 " />
<polygon stroke="black" stroke-width="1" fill="rgb(19, 19, 19)" fill-opacity="1" points="960.497,1420.701 852.908,1399.505 852.906,1420.689 " />
<polygon stroke="black" stroke-width="1" fill="rgb(19, 19, 19)" fill-opacity="1" points="852.908,1399.505 806.801,1374.349 806.796,1420.684 852.906,1420.689 " />
<polygon stroke="black" stroke-width="1" fill="rgb(19, 19, 19)" fill-opacity="1" points="806.801,1374.349 649.586,1374.331 649.581,1420.666 806.796,1420.684 " />
<polygon stroke="black" stroke-width="1" fill="rgb(19, 19, 19)" fill-opacity="1" points="649.586,1374.331 629.597,1374.329 629.592,1420.664 649.581,1420.666 " />
<polygon stroke="black" stroke-width="1" fill="rgb(19, 19, 19)" fill-opacity="1" points="629.597,1374.329 610.357,1374.327 610.352,1420.661 629.592,1420.664 " />
<polygon stroke="black" stroke-width="1" fill="rgb(19, 19, 19)" fill-opacity="1" points="610.357,1374.327 591.118,1374.325 591.113,1420.659 610.352,1420.661 " />
<polygon stroke="black" stroke-width="1" fill="rgb(19, 19, 19)" fill-opacity="1" points="591.118,1374.325 559.352,1374.321 559.348,1420.656 591.113,1420.659 " />
<polygon stroke="black" stroke-width="1" fill="rgb(19, 19, 19)" fill-opacity="1" points="436.458,1374.313 436.456,1420.647 559.348,1420.656 559.352,1374.321 " />
<polygon stroke="black" stroke-width="1" fill="rgb(19, 19, 19)" fill-opacity="1" points="436.458,1374.313 317.488,1374.313 317.488,1420.647 436.456,1420.647 " />
<polygon stroke="black" stroke-width="1" fill="rgb(19, 19, 19)" fill-opacity="1" points="457.208,1627.962 427.167,1627.944 427.182,1600.599 472.919,1623.532 " />
<polygon stroke="black" stroke-width="1" fill="rgb(19, 19, 19)" fill-opacity="1" points="125.769,1627.801 52.592,1627.767 54.765,1600.425 125.782,1600.458 " />
<polygon stroke="black" stroke-width="1" fill="rgb(19, 19, 19)" fill-opacity="1" points="176.619,1627.825 125.769,1627.801 125.782,1600.458 176.631,1600.482 " />
<polygon stroke="black" stroke-width="1" fill="rgb(19, 19, 19)" fill-opacity="1" points="267.918,1627.867 176.619,1627.825 176.631,1600.482 267.932,1600.525 " />
<polygon stroke="black" stroke-width="1" fill="rgb(19, 19, 19)" fill-opacity="1" points="341.624,1627.902 267.918,1627.867 267.932,1600.525 341.637,1600.559 " />
<polygon stroke="black" stroke-width="1" fill="rgb(19, 19, 19)" fill-opacity="1" points="402.087,1627.931 341.624,1627.902 341.637,1600.559 402.100,1600.587 " />
<polygon stroke="black" stroke-width="1" fill="rgb(19, 19, 19)" fill-opacity="1" points="427.167,1627.944 402.087,1627.931 402.100,1600.587 427.182,1600.599 " />
<polygon stroke="black" stroke-width="1" fill="rgb(19, 19, 19)" fill-opacity="1" points="126.192,1666.773 177.039,1666.772 177.039,1696.698 126.193,1696.699 " />
<polygon stroke="black" stroke-width="1" fill="rgb(19, 19, 19)" fill-opacity="1" points="177.039,1666.772 268.333,1666.771 268.334,1696.697 177.039,1696.698 " />
<polygon stroke="black" stroke-width="1" fill="rgb(19, 19, 19)" fill-opacity="1" points="268.333,1666.771 342.035,1666.770 342.035,1696.697 268.334,1696.697 " />
<polygon stroke="black" stroke-width="1" fill="rgb(19, 19, 19)" fill-opacity="1" points="342.035,1666.770 402.494,1666.769 402.494,1696.696 342.035,1696.697 " />
<polygon stroke="black" stroke-width="1" fill="rgb(19, 19, 19)" fill-opacity="1" points="402.494,1666.769 424.574,1666.769 424.575,1696.695 402.494,1696.696 " />
<polygon stroke="black" stroke-width="1" fill="rgb(19, 19, 19)" fill-opacity="1" points="424.574,1666.769 457.212,1666.768 472.924,1696.694 424.575,1696.695 " />
<polygon stroke="black" stroke-width="1" fill="rgb(19, 19, 19)" fill-opacity="1" points="457.212,1666.768 457.208,1627.962 472.919,1623.532 472.924,1696.694 " />
<polygon stroke="black" stroke-width="1" fill="rgb(19, 19, 19)" fill-opacity="1" points="971.349,1427.985 1041.042,1427.985 1041.042,1391.055 990.981,1399.661 " />
<polygon stroke="black" stroke-width="1" fill="rgb(19, 19, 19)" fill-opacity="1" points="1176.424,1317.167 1089.471,1317.167 1089.471,1354.096 1176.424,1354.096 " />
<polygon stroke="black" stroke-width="1" fill="rgb(19, 19, 19)" fill-opacity="1" points="1041.042,1317.167 971.348,1317.167 990.981,1345.491 1041.042,1354.096 " />
<polygon stroke="black" stroke-width="1" fill="rgb(19, 19, 19)" fill-opacity="1" points="1246.620,1317.166 1176.424,1317.167 1176.424,1354.096 1246.621,1354.096 " />
<polygon stroke="black" stroke-width="1" fill="rgb(19, 19, 19)" fill-opacity="1" points="1041.042,1427.985 1089.471,1427.984 1089.471,1391.055 1041.042,1391.055 " />
<polygon stroke="black" stroke-width="1" fill="rgb(19, 19, 19)" fill-opacity="1" points="1304.204,1317.166 1246.620,1317.166 1246.621,1354.096 1304.204,1354.096 " />
<polygon stroke="black" stroke-width="1" fill="rgb(19, 19, 19)" fill-opacity="1" points="1089.471,1427.984 1176.424,1427.984 1176.424,1391.054 1089.471,1391.055 " />
<polygon stroke="black" stroke-width="1" fill="rgb(19, 19, 19)" fill-opacity="1" points="1325.235,1317.166 1304.204,1317.166 1304.204,1354.096 1313.209,1354.096 " />
<polygon stroke="black" stroke-width="1" fill="rgb(19, 19, 19)" fill-opacity="1" points="1176.424,1427.984 1246.621,1427.984 1246.621,1391.054 1176.424,1391.054 " />
<polygon stroke="black" stroke-width="1" fill="rgb(19, 19, 19)" fill-opacity="1" points="1041.042,1354.096 990.247,1354.097 990.247,1391.055 1041.042,1391.055 " />
<polygon stroke="black" stroke-width="1" fill="rgb(19, 19, 19)" fill-opacity="1" points="1041.042,1391.055 1089.471,1391.055 1089.471,1354.096 1041.042,1354.096 " />
<polygon stroke="black" stroke-width="1" fill="rgb(19, 19, 19)" fill-opacity="1" points="1089.471,1391.055 1176.424,1391.054 1176.424,1354.096 1089.471,1354.096 " />
<polygon stroke="black" stroke-width="1" fill="rgb(19, 19, 19)" fill-opacity="1" points="1176.424,1391.054 1246.621,1391.054 1246.621,1354.096 1176.424,1354.096 " />
<polygon stroke="black" stroke-width="1" fill="rgb(19, 19, 19)" fill-opacity="1" points="1246.621,1391.054 1304.204,1391.054 1304.204,1354.096 1246.621,1354.096 " />
<polygon stroke="black" stroke-width="1" fill="rgb(19, 19, 19)" fill-opacity="1" points="1304.204,1391.054 1313.210,1391.054 1313.209,1354.096 1304.204,1354.096 " />
<polygon stroke="black" stroke-width="1" fill="rgb(19, 19, 19)" fill-opacity="1" points="1388.189,1391.054 1388.189,1354.096 1344.615,1354.096 1344.615,1391.054 " />
<polygon stroke="black" stroke-width="1" fill="rgb(19, 19, 19)" fill-opacity="1" points="1344.615,1391.054 1344.615,1354.096 1330.568,1354.096 1330.568,1391.054 " />
<polygon stroke="black" stroke-width="1" fill="rgb(19, 19, 19)" fill-opacity="1" points="1330.568,1391.054 1330.568,1354.096 1313.209,1354.096 1313.210,1391.054 " />
<polygon stroke="black" stroke-width="1" fill="rgb(19, 19, 19)" fill-opacity="1" points="1330.568,1391.054 1328.091,1427.984 1340.500,1400.986 " />
<polygon stroke="black" stroke-width="1" fill="rgb(19, 19, 19)" fill-opacity="1" points="1325.235,1317.166 1330.568,1354.096 1340.500,1344.163 " />
<polygon stroke="black" stroke-width="1" fill="rgb(19, 19, 19)" fill-opacity="1" points="1352.526,1302.281 1325.235,1317.166 1340.500,1344.163 " />
<polygon stroke="black" stroke-width="1" fill="rgb(19, 19, 19)" fill-opacity="1" points="1624.432,1663.280 1624.634,1723.748 1572.987,1723.921 1572.783,1663.457 " />
<polygon stroke="black" stroke-width="1" fill="rgb(19, 19, 19)" fill-opacity="1" points="1683.526,1663.079 1683.719,1723.556 1624.634,1723.748 1624.432,1663.280 " />
<polygon stroke="black" stroke-width="1" fill="rgb(19, 19, 19)" fill-opacity="1" points="551.516,890.665 593.445,885.794 600.634,858.801 " />
<polygon stroke="black" stroke-width="1" fill="rgb(19, 19, 19)" fill-opacity="1" points="3714.456,1611.761 3709.571,1669.279 3738.012,1655.834 3741.560,1614.063 " />
<polygon stroke="black" stroke-width="1" fill="rgb(19, 19, 19)" fill-opacity="1" points="2901.471,1525.934 2901.535,1511.054 2979.523,1511.392 2967.333,1526.219 " />
<polygon stroke="black" stroke-width="1" fill="rgb(19, 19, 19)" fill-opacity="1" points="2788.431,1582.708 2788.504,1565.526 2901.298,1566.011 2901.224,1583.192 " />
<polygon stroke="black" stroke-width="1" fill="rgb(19, 19, 19)" fill-opacity="1" points="2967.160,1566.295 2979.211,1583.528 2901.224,1583.192 2901.298,1566.011 " />
<polygon stroke="black" stroke-width="1" fill="rgb(19, 19, 19)" fill-opacity="1" points="2645.865,1417.779 2784.097,1328.286 2791.817,1347.159 " />
<polygon stroke="black" stroke-width="1" fill="rgb(19, 19, 19)" fill-opacity="1" points="2645.726,1449.977 2645.865,1417.779 2914.561,1418.955 2914.420,1451.146 " />
<polygon stroke="black" stroke-width="1" fill="rgb(19, 19, 19)" fill-opacity="1" points="2901.535,1511.054 2788.740,1510.566 2633.011,1470.638 2901.706,1471.807 " />
<polygon stroke="black" stroke-width="1" fill="rgb(19, 19, 19)" fill-opacity="1" points="267.995,1464.264 341.703,1457.469 341.685,1496.406 267.977,1500.511 " />
<polygon stroke="black" stroke-width="1" fill="rgb(19, 19, 19)" fill-opacity="1" points="341.703,1457.469 402.169,1450.713 402.150,1492.323 341.685,1496.406 " />
<polygon stroke="black" stroke-width="1" fill="rgb(19, 19, 19)" fill-opacity="1" points="402.169,1450.713 427.250,1448.238 427.231,1490.827 402.150,1492.323 " />
<polygon stroke="black" stroke-width="1" fill="rgb(19, 19, 19)" fill-opacity="1" points="3031.272,1687.680 3059.674,1688.093 3056.696,1652.653 3028.491,1654.146 " />
<polygon stroke="black" stroke-width="1" fill="rgb(19, 19, 19)" fill-opacity="1" points="53.021,1804.192 53.020,1696.700 126.193,1696.699 126.194,1804.192 " />
<polygon stroke="black" stroke-width="1" fill="rgb(19, 19, 19)" fill-opacity="1" points="62.306,1561.109 95.600,1512.842 125.802,1557.797 " />
<polygon stroke="black" stroke-width="1" fill="rgb(19, 19, 19)" fill-opacity="1" points="53.022,1917.315 53.021,1804.192 126.194,1804.192 126.194,1917.314 " />
<polygon stroke="black" stroke-width="1" fill="rgb(19, 19, 19)" fill-opacity="1" points="53.020,1696.700 53.020,1666.774 126.192,1666.773 126.193,1696.699 " />
<polygon stroke="black" stroke-width="1" fill="rgb(19, 19, 19)" fill-opacity="1" points="95.600,1512.842 133.464,1484.222 141.079,1511.106 125.802,1557.797 " />
<polygon stroke="black" stroke-width="1" fill="rgb(19, 19, 19)" fill-opacity="1" points="133.464,1484.222 176.691,1473.254 176.675,1505.943 141.079,1511.106 " />
<polygon stroke="black" stroke-width="1" fill="rgb(19, 19, 19)" fill-opacity="1" points="54.765,1600.425 62.306,1561.109 125.802,1557.797 125.782,1600.458 " />
<polygon stroke="black" stroke-width="1" fill="rgb(19, 19, 19)" fill-opacity="1" points="3059.674,1688.093 3116.156,1692.315 3109.018,1596.533 3056.696,1652.653 " />
<polygon stroke="black" stroke-width="1" fill="rgb(19, 19, 19)" fill-opacity="1" points="176.691,1473.254 267.995,1464.264 267.977,1500.511 176.675,1505.943 " />
<polygon stroke="black" stroke-width="1" fill="rgb(19, 19, 19)" fill-opacity="1" points="573.248,927.690 606.592,907.429 593.445,885.794 551.516,890.665 " />

</svg>
