<?xml version="1.0" standalone="no"?>
<!DOCTYPE svg PUBLIC "-//W3C//DTD SVG 1.1//EN" 
  "http://www.w3.org/Graphics/SVG/1.1/DTD/svg11.dtd">
<svg width="2048" height="2048" viewBox="0 0 2048 2048"
     xmlns="http://www.w3.org/2000/svg" version="1.1">
<desc>aspade.blend, (Blender 4.3.2)</desc>
<polygon stroke="black" stroke-width="1" fill="rgb(204, 204, 204)" fill-opacity="1" points="34.967,1597.096 46.152,1598.459 51.382,1554.258 40.023,1552.716 " />
<polygon stroke="black" stroke-width="1" fill="rgb(204, 204, 204)" fill-opacity="1" points="81.971,1570.240 91.327,1575.511 93.650,1558.659 80.005,1557.238 " />
<polygon stroke="black" stroke-width="1" fill="rgb(204, 204, 204)" fill-opacity="1" points="91.327,1575.511 199.304,1579.554 201.277,1562.859 93.650,1558.659 " />
<polygon stroke="black" stroke-width="1" fill="rgb(204, 204, 204)" fill-opacity="1" points="199.304,1579.554 319.575,1581.797 321.019,1565.172 201.277,1562.859 " />
<polygon stroke="black" stroke-width="1" fill="rgb(204, 204, 204)" fill-opacity="1" points="319.575,1581.797 445.661,1582.336 446.371,1565.725 321.019,1565.172 " />
<polygon stroke="black" stroke-width="1" fill="rgb(204, 204, 204)" fill-opacity="1" points="489.483,1582.340 507.910,1582.342 507.912,1565.731 490.200,1565.729 " />
<polygon stroke="black" stroke-width="1" fill="rgb(204, 204, 204)" fill-opacity="1" points="40.023,1552.716 51.382,1554.258 62.181,1474.035 51.076,1472.333 " />
<polygon stroke="black" stroke-width="1" fill="rgb(204, 204, 204)" fill-opacity="1" points="80.005,1557.238 93.650,1558.659 105.714,1479.146 91.163,1477.437 " />
<polygon stroke="black" stroke-width="1" fill="rgb(204, 204, 204)" fill-opacity="1" points="93.650,1558.659 201.277,1562.859 211.486,1483.438 105.714,1479.146 " />
<polygon stroke="black" stroke-width="1" fill="rgb(204, 204, 204)" fill-opacity="1" points="201.277,1562.859 321.019,1565.172 328.533,1485.761 211.486,1483.438 " />
<polygon stroke="black" stroke-width="1" fill="rgb(204, 204, 204)" fill-opacity="1" points="321.019,1565.172 446.371,1565.725 450.069,1486.302 328.533,1485.761 " />
<polygon stroke="black" stroke-width="1" fill="rgb(204, 204, 204)" fill-opacity="1" points="51.076,1472.333 62.181,1474.035 71.782,1405.956 61.027,1404.156 " />
<polygon stroke="black" stroke-width="1" fill="rgb(204, 204, 204)" fill-opacity="1" points="91.163,1477.437 105.714,1479.146 116.335,1411.614 101.054,1409.673 " />
<polygon stroke="black" stroke-width="1" fill="rgb(204, 204, 204)" fill-opacity="1" points="105.714,1479.146 211.486,1483.438 220.411,1415.982 116.335,1411.614 " />
<polygon stroke="black" stroke-width="1" fill="rgb(204, 204, 204)" fill-opacity="1" points="211.486,1483.438 328.533,1485.761 335.099,1418.310 220.411,1415.982 " />
<polygon stroke="black" stroke-width="1" fill="rgb(204, 204, 204)" fill-opacity="1" points="328.533,1485.761 450.069,1486.302 453.299,1418.844 335.099,1418.310 " />
<polygon stroke="black" stroke-width="1" fill="rgb(204, 204, 204)" fill-opacity="1" points="450.069,1486.302 567.724,1486.305 567.724,1418.843 453.299,1418.844 " />
<polygon stroke="black" stroke-width="1" fill="rgb(204, 204, 204)" fill-opacity="1" points="61.027,1404.156 71.782,1405.956 83.494,1327.511 73.362,1325.656 " />
<polygon stroke="black" stroke-width="1" fill="rgb(204, 204, 204)" fill-opacity="1" points="101.054,1409.673 116.335,1411.614 129.148,1333.726 113.079,1331.538 " />
<polygon stroke="black" stroke-width="1" fill="rgb(204, 204, 204)" fill-opacity="1" points="116.335,1411.614 220.411,1415.982 231.118,1338.154 129.148,1333.726 " />
<polygon stroke="black" stroke-width="1" fill="rgb(204, 204, 204)" fill-opacity="1" points="220.411,1415.982 335.099,1418.310 342.973,1340.480 231.118,1338.154 " />
<polygon stroke="black" stroke-width="1" fill="rgb(204, 204, 204)" fill-opacity="1" points="335.099,1418.310 453.299,1418.844 457.174,1341.006 342.973,1340.480 " />
<polygon stroke="black" stroke-width="1" fill="rgb(204, 204, 204)" fill-opacity="1" points="453.299,1418.844 567.724,1418.843 567.724,1341.002 457.174,1341.006 " />
<polygon stroke="black" stroke-width="1" fill="rgb(204, 204, 204)" fill-opacity="1" points="73.362,1325.656 83.494,1327.511 93.664,1259.776 84.076,1257.885 " />
<polygon stroke="black" stroke-width="1" fill="rgb(204, 204, 204)" fill-opacity="1" points="113.079,1331.538 129.148,1333.726 140.264,1266.463 123.518,1264.060 " />
<polygon stroke="black" stroke-width="1" fill="rgb(204, 204, 204)" fill-opacity="1" points="129.148,1333.726 231.118,1338.154 240.394,1270.937 140.264,1266.463 " />
<polygon stroke="black" stroke-width="1" fill="rgb(204, 204, 204)" fill-opacity="1" points="231.118,1338.154 342.973,1340.480 349.791,1273.263 240.394,1270.937 " />
<polygon stroke="black" stroke-width="1" fill="rgb(204, 204, 204)" fill-opacity="1" points="342.973,1340.480 457.174,1341.006 460.528,1273.786 349.791,1273.263 " />
<polygon stroke="black" stroke-width="1" fill="rgb(204, 204, 204)" fill-opacity="1" points="457.174,1341.006 567.724,1341.002 567.724,1273.781 460.528,1273.786 " />
<polygon stroke="black" stroke-width="1" fill="rgb(204, 204, 204)" fill-opacity="1" points="84.076,1257.885 93.664,1259.776 104.645,1188.838 95.732,1186.925 " />
<polygon stroke="black" stroke-width="1" fill="rgb(204, 204, 204)" fill-opacity="1" points="123.518,1264.060 140.264,1266.463 144.125,1243.667 130.311,1247.195 " />
<polygon stroke="black" stroke-width="1" fill="rgb(204, 204, 204)" fill-opacity="1" points="140.264,1266.463 240.394,1270.937 243.598,1248.219 144.125,1243.667 " />
<polygon stroke="black" stroke-width="1" fill="rgb(204, 204, 204)" fill-opacity="1" points="240.394,1270.937 349.791,1273.263 352.142,1250.581 243.598,1248.219 " />
<polygon stroke="black" stroke-width="1" fill="rgb(204, 204, 204)" fill-opacity="1" points="349.791,1273.263 460.528,1273.786 461.684,1251.111 352.142,1250.581 " />
<polygon stroke="black" stroke-width="1" fill="rgb(204, 204, 204)" fill-opacity="1" points="460.528,1273.786 567.724,1273.781 567.724,1251.105 461.684,1251.111 " />
<polygon stroke="black" stroke-width="1" fill="rgb(204, 204, 204)" fill-opacity="1" points="81.971,1570.240 80.005,1557.238 51.382,1554.258 46.152,1598.459 " />
<polygon stroke="black" stroke-width="1" fill="rgb(204, 204, 204)" fill-opacity="1" points="80.005,1557.238 91.163,1477.437 62.181,1474.035 51.382,1554.258 " />
<polygon stroke="black" stroke-width="1" fill="rgb(204, 204, 204)" fill-opacity="1" points="91.163,1477.437 101.054,1409.673 71.782,1405.956 62.181,1474.035 " />
<polygon stroke="black" stroke-width="1" fill="rgb(204, 204, 204)" fill-opacity="1" points="101.054,1409.673 113.079,1331.538 83.494,1327.511 71.782,1405.956 " />
<polygon stroke="black" stroke-width="1" fill="rgb(204, 204, 204)" fill-opacity="1" points="113.079,1331.538 123.518,1264.060 93.664,1259.776 83.494,1327.511 " />
<polygon stroke="black" stroke-width="1" fill="rgb(204, 204, 204)" fill-opacity="1" points="123.518,1264.060 130.311,1247.195 104.645,1188.838 93.664,1259.776 " />
<polygon stroke="black" stroke-width="1" fill="rgb(204, 204, 204)" fill-opacity="1" points="130.311,1247.195 144.125,1243.667 152.187,1196.066 104.645,1188.838 " />
<polygon stroke="black" stroke-width="1" fill="rgb(204, 204, 204)" fill-opacity="1" points="461.684,1251.111 567.724,1251.105 567.724,1203.487 464.113,1203.492 " />
<polygon stroke="black" stroke-width="1" fill="rgb(204, 204, 204)" fill-opacity="1" points="243.598,1248.219 352.142,1250.581 357.080,1202.966 250.312,1200.617 " />
<polygon stroke="black" stroke-width="1" fill="rgb(204, 204, 204)" fill-opacity="1" points="144.125,1243.667 243.598,1248.219 250.312,1200.617 152.187,1196.066 " />
<polygon stroke="black" stroke-width="1" fill="rgb(204, 204, 204)" fill-opacity="1" points="352.142,1250.581 461.684,1251.111 464.113,1203.492 357.080,1202.966 " />
<polygon stroke="black" stroke-width="1" fill="rgb(204, 204, 204)" fill-opacity="1" points="91.327,1575.511 81.971,1570.240 46.152,1598.459 87.637,1602.276 " />
<polygon stroke="black" stroke-width="1" fill="rgb(204, 204, 204)" fill-opacity="1" points="567.724,1582.347 507.910,1582.342 507.908,1595.749 567.724,1595.755 " />
<polygon stroke="black" stroke-width="1" fill="rgb(204, 204, 204)" fill-opacity="1" points="319.575,1581.797 199.304,1579.554 196.138,1606.333 317.245,1608.603 " />
<polygon stroke="black" stroke-width="1" fill="rgb(204, 204, 204)" fill-opacity="1" points="199.304,1579.554 91.327,1575.511 87.637,1602.276 196.138,1606.333 " />
<polygon stroke="black" stroke-width="1" fill="rgb(204, 204, 204)" fill-opacity="1" points="445.661,1582.336 319.575,1581.797 317.245,1608.603 444.514,1609.149 " />
<polygon stroke="black" stroke-width="1" fill="rgb(204, 204, 204)" fill-opacity="1" points="1100.482,1597.096 1095.426,1552.716 1084.066,1554.258 1089.296,1598.459 " />
<polygon stroke="black" stroke-width="1" fill="rgb(204, 204, 204)" fill-opacity="1" points="1053.477,1570.240 1055.443,1557.238 1041.798,1558.659 1044.121,1575.511 " />
<polygon stroke="black" stroke-width="1" fill="rgb(204, 204, 204)" fill-opacity="1" points="1044.121,1575.511 1041.798,1558.659 934.172,1562.859 936.145,1579.554 " />
<polygon stroke="black" stroke-width="1" fill="rgb(204, 204, 204)" fill-opacity="1" points="936.145,1579.554 934.172,1562.859 814.429,1565.172 815.873,1581.797 " />
<polygon stroke="black" stroke-width="1" fill="rgb(204, 204, 204)" fill-opacity="1" points="815.873,1581.797 814.429,1565.172 689.077,1565.725 689.787,1582.336 " />
<polygon stroke="black" stroke-width="1" fill="rgb(204, 204, 204)" fill-opacity="1" points="645.965,1582.340 645.249,1565.729 627.537,1565.731 627.539,1582.342 " />
<polygon stroke="black" stroke-width="1" fill="rgb(204, 204, 204)" fill-opacity="1" points="1095.426,1552.716 1084.373,1472.333 1073.268,1474.035 1084.066,1554.258 " />
<polygon stroke="black" stroke-width="1" fill="rgb(204, 204, 204)" fill-opacity="1" points="1055.443,1557.238 1044.286,1477.437 1029.734,1479.146 1041.798,1558.659 " />
<polygon stroke="black" stroke-width="1" fill="rgb(204, 204, 204)" fill-opacity="1" points="1041.798,1558.659 1029.734,1479.146 923.962,1483.438 934.172,1562.859 " />
<polygon stroke="black" stroke-width="1" fill="rgb(204, 204, 204)" fill-opacity="1" points="934.172,1562.859 923.962,1483.438 806.916,1485.761 814.429,1565.172 " />
<polygon stroke="black" stroke-width="1" fill="rgb(204, 204, 204)" fill-opacity="1" points="814.429,1565.172 806.916,1485.761 685.380,1486.302 689.077,1565.725 " />
<polygon stroke="black" stroke-width="1" fill="rgb(204, 204, 204)" fill-opacity="1" points="1084.373,1472.333 1074.421,1404.156 1063.666,1405.956 1073.268,1474.035 " />
<polygon stroke="black" stroke-width="1" fill="rgb(204, 204, 204)" fill-opacity="1" points="1044.286,1477.437 1034.394,1409.673 1019.113,1411.614 1029.734,1479.146 " />
<polygon stroke="black" stroke-width="1" fill="rgb(204, 204, 204)" fill-opacity="1" points="1029.734,1479.146 1019.113,1411.614 915.037,1415.982 923.962,1483.438 " />
<polygon stroke="black" stroke-width="1" fill="rgb(204, 204, 204)" fill-opacity="1" points="923.962,1483.438 915.037,1415.982 800.350,1418.310 806.916,1485.761 " />
<polygon stroke="black" stroke-width="1" fill="rgb(204, 204, 204)" fill-opacity="1" points="806.916,1485.761 800.350,1418.310 682.149,1418.844 685.380,1486.302 " />
<polygon stroke="black" stroke-width="1" fill="rgb(204, 204, 204)" fill-opacity="1" points="685.380,1486.302 682.149,1418.844 567.724,1418.843 567.724,1486.305 " />
<polygon stroke="black" stroke-width="1" fill="rgb(204, 204, 204)" fill-opacity="1" points="1074.421,1404.156 1062.086,1325.656 1051.954,1327.511 1063.666,1405.956 " />
<polygon stroke="black" stroke-width="1" fill="rgb(204, 204, 204)" fill-opacity="1" points="1034.394,1409.673 1022.369,1331.538 1006.301,1333.726 1019.113,1411.614 " />
<polygon stroke="black" stroke-width="1" fill="rgb(204, 204, 204)" fill-opacity="1" points="1019.113,1411.614 1006.301,1333.726 904.330,1338.154 915.037,1415.982 " />
<polygon stroke="black" stroke-width="1" fill="rgb(204, 204, 204)" fill-opacity="1" points="915.037,1415.982 904.330,1338.154 792.476,1340.480 800.350,1418.310 " />
<polygon stroke="black" stroke-width="1" fill="rgb(204, 204, 204)" fill-opacity="1" points="800.350,1418.310 792.476,1340.480 678.275,1341.006 682.149,1418.844 " />
<polygon stroke="black" stroke-width="1" fill="rgb(204, 204, 204)" fill-opacity="1" points="682.149,1418.844 678.275,1341.006 567.724,1341.002 567.724,1418.843 " />
<polygon stroke="black" stroke-width="1" fill="rgb(204, 204, 204)" fill-opacity="1" points="1062.086,1325.656 1051.373,1257.885 1041.784,1259.776 1051.954,1327.511 " />
<polygon stroke="black" stroke-width="1" fill="rgb(204, 204, 204)" fill-opacity="1" points="1022.369,1331.538 1011.930,1264.060 995.184,1266.463 1006.301,1333.726 " />
<polygon stroke="black" stroke-width="1" fill="rgb(204, 204, 204)" fill-opacity="1" points="1006.301,1333.726 995.184,1266.463 895.055,1270.937 904.330,1338.154 " />
<polygon stroke="black" stroke-width="1" fill="rgb(204, 204, 204)" fill-opacity="1" points="904.330,1338.154 895.055,1270.937 785.658,1273.263 792.476,1340.480 " />
<polygon stroke="black" stroke-width="1" fill="rgb(204, 204, 204)" fill-opacity="1" points="792.476,1340.480 785.658,1273.263 674.921,1273.786 678.275,1341.006 " />
<polygon stroke="black" stroke-width="1" fill="rgb(204, 204, 204)" fill-opacity="1" points="678.275,1341.006 674.921,1273.786 567.724,1273.781 567.724,1341.002 " />
<polygon stroke="black" stroke-width="1" fill="rgb(204, 204, 204)" fill-opacity="1" points="1051.373,1257.885 1039.716,1186.925 1030.803,1188.838 1041.784,1259.776 " />
<polygon stroke="black" stroke-width="1" fill="rgb(204, 204, 204)" fill-opacity="1" points="1011.930,1264.060 1005.137,1247.195 991.324,1243.667 995.184,1266.463 " />
<polygon stroke="black" stroke-width="1" fill="rgb(204, 204, 204)" fill-opacity="1" points="995.184,1266.463 991.324,1243.667 891.850,1248.219 895.055,1270.937 " />
<polygon stroke="black" stroke-width="1" fill="rgb(204, 204, 204)" fill-opacity="1" points="895.055,1270.937 891.850,1248.219 783.306,1250.581 785.658,1273.263 " />
<polygon stroke="black" stroke-width="1" fill="rgb(204, 204, 204)" fill-opacity="1" points="785.658,1273.263 783.306,1250.581 673.764,1251.111 674.921,1273.786 " />
<polygon stroke="black" stroke-width="1" fill="rgb(204, 204, 204)" fill-opacity="1" points="674.921,1273.786 673.764,1251.111 567.724,1251.105 567.724,1273.781 " />
<polygon stroke="black" stroke-width="1" fill="rgb(204, 204, 204)" fill-opacity="1" points="1053.477,1570.240 1089.296,1598.459 1084.066,1554.258 1055.443,1557.238 " />
<polygon stroke="black" stroke-width="1" fill="rgb(204, 204, 204)" fill-opacity="1" points="1055.443,1557.238 1084.066,1554.258 1073.268,1474.035 1044.286,1477.437 " />
<polygon stroke="black" stroke-width="1" fill="rgb(204, 204, 204)" fill-opacity="1" points="1044.286,1477.437 1073.268,1474.035 1063.666,1405.956 1034.394,1409.673 " />
<polygon stroke="black" stroke-width="1" fill="rgb(204, 204, 204)" fill-opacity="1" points="1034.394,1409.673 1063.666,1405.956 1051.954,1327.511 1022.369,1331.538 " />
<polygon stroke="black" stroke-width="1" fill="rgb(204, 204, 204)" fill-opacity="1" points="1022.369,1331.538 1051.954,1327.511 1041.784,1259.776 1011.930,1264.060 " />
<polygon stroke="black" stroke-width="1" fill="rgb(204, 204, 204)" fill-opacity="1" points="1011.930,1264.060 1041.784,1259.776 1030.803,1188.838 1005.137,1247.195 " />
<polygon stroke="black" stroke-width="1" fill="rgb(204, 204, 204)" fill-opacity="1" points="1005.137,1247.195 1030.803,1188.838 983.261,1196.066 991.324,1243.667 " />
<polygon stroke="black" stroke-width="1" fill="rgb(204, 204, 204)" fill-opacity="1" points="673.764,1251.111 671.335,1203.492 567.724,1203.487 567.724,1251.105 " />
<polygon stroke="black" stroke-width="1" fill="rgb(204, 204, 204)" fill-opacity="1" points="891.850,1248.219 885.136,1200.617 778.369,1202.966 783.306,1250.581 " />
<polygon stroke="black" stroke-width="1" fill="rgb(204, 204, 204)" fill-opacity="1" points="991.324,1243.667 983.261,1196.066 885.136,1200.617 891.850,1248.219 " />
<polygon stroke="black" stroke-width="1" fill="rgb(204, 204, 204)" fill-opacity="1" points="783.306,1250.581 778.369,1202.966 671.335,1203.492 673.764,1251.111 " />
<polygon stroke="black" stroke-width="1" fill="rgb(204, 204, 204)" fill-opacity="1" points="1044.121,1575.511 1047.811,1602.277 1089.296,1598.459 1053.477,1570.240 " />
<polygon stroke="black" stroke-width="1" fill="rgb(204, 204, 204)" fill-opacity="1" points="567.724,1582.347 567.724,1595.755 627.540,1595.749 627.539,1582.342 " />
<polygon stroke="black" stroke-width="1" fill="rgb(204, 204, 204)" fill-opacity="1" points="815.873,1581.797 818.203,1608.602 939.311,1606.333 936.145,1579.554 " />
<polygon stroke="black" stroke-width="1" fill="rgb(204, 204, 204)" fill-opacity="1" points="936.145,1579.554 939.311,1606.333 1047.811,1602.277 1044.121,1575.511 " />
<polygon stroke="black" stroke-width="1" fill="rgb(204, 204, 204)" fill-opacity="1" points="689.787,1582.336 690.934,1609.149 818.203,1608.602 815.873,1581.797 " />
<polygon stroke="black" stroke-width="1" fill="rgb(204, 204, 204)" fill-opacity="1" points="489.483,1582.340 490.200,1565.729 446.371,1565.725 445.661,1582.336 " />
<polygon stroke="black" stroke-width="1" fill="rgb(204, 204, 204)" fill-opacity="1" points="490.765,1553.581 507.912,1553.582 507.913,1537.214 496.103,1542.007 " />
<polygon stroke="black" stroke-width="1" fill="rgb(204, 204, 204)" fill-opacity="1" points="488.339,1609.154 489.483,1582.340 445.661,1582.336 444.514,1609.149 " />
<polygon stroke="black" stroke-width="1" fill="rgb(204, 204, 204)" fill-opacity="1" points="645.249,1565.729 645.965,1582.340 689.787,1582.336 689.077,1565.725 " />
<polygon stroke="black" stroke-width="1" fill="rgb(204, 204, 204)" fill-opacity="1" points="644.683,1553.581 639.346,1542.007 627.536,1537.214 627.536,1553.582 " />
<polygon stroke="black" stroke-width="1" fill="rgb(204, 204, 204)" fill-opacity="1" points="645.965,1582.340 647.109,1609.154 690.934,1609.149 689.787,1582.336 " />
<polygon stroke="black" stroke-width="1" fill="rgb(204, 204, 204)" fill-opacity="1" points="507.913,1537.214 567.724,1537.218 567.724,1486.305 450.069,1486.302 " />
<polygon stroke="black" stroke-width="1" fill="rgb(204, 204, 204)" fill-opacity="1" points="627.536,1537.214 685.380,1486.302 567.724,1486.305 567.724,1537.218 " />
<polygon stroke="black" stroke-width="1" fill="rgb(204, 204, 204)" fill-opacity="1" points="490.200,1565.729 490.765,1553.581 450.069,1486.302 446.371,1565.725 " />
<polygon stroke="black" stroke-width="1" fill="rgb(204, 204, 204)" fill-opacity="1" points="490.765,1553.581 496.103,1542.007 450.069,1486.302 " />
<polygon stroke="black" stroke-width="1" fill="rgb(204, 204, 204)" fill-opacity="1" points="496.103,1542.007 507.913,1537.214 450.069,1486.302 " />
<polygon stroke="black" stroke-width="1" fill="rgb(204, 204, 204)" fill-opacity="1" points="639.346,1542.007 685.380,1486.302 627.536,1537.214 " />
<polygon stroke="black" stroke-width="1" fill="rgb(204, 204, 204)" fill-opacity="1" points="644.683,1553.581 645.249,1565.729 689.077,1565.725 685.380,1486.302 " />
<polygon stroke="black" stroke-width="1" fill="rgb(204, 204, 204)" fill-opacity="1" points="639.346,1542.007 644.683,1553.581 685.380,1486.302 " />
<polygon stroke="black" stroke-width="1" fill="rgb(204, 204, 204)" fill-opacity="1" points="645.249,1565.729 644.683,1553.581 627.536,1553.582 627.537,1565.731 " />
<polygon stroke="black" stroke-width="1" fill="rgb(204, 204, 204)" fill-opacity="1" points="490.200,1565.729 507.912,1565.731 507.912,1553.582 490.765,1553.581 " />
<polygon stroke="black" stroke-width="1" fill="rgb(204, 204, 204)" fill-opacity="1" points="567.724,1595.755 507.908,1595.749 488.339,1609.154 567.724,1609.163 " />
<polygon stroke="black" stroke-width="1" fill="rgb(204, 204, 204)" fill-opacity="1" points="507.912,1565.731 507.910,1582.342 567.724,1582.347 567.724,1565.736 " />
<polygon stroke="black" stroke-width="1" fill="rgb(204, 204, 204)" fill-opacity="1" points="627.540,1595.749 567.724,1595.755 567.724,1609.163 647.109,1609.154 " />
<polygon stroke="black" stroke-width="1" fill="rgb(204, 204, 204)" fill-opacity="1" points="507.913,1537.214 507.912,1553.582 567.724,1553.587 567.724,1537.218 " />
<polygon stroke="black" stroke-width="1" fill="rgb(204, 204, 204)" fill-opacity="1" points="507.912,1553.582 507.912,1565.731 567.724,1565.736 567.724,1553.587 " />
<polygon stroke="black" stroke-width="1" fill="rgb(204, 204, 204)" fill-opacity="1" points="627.536,1553.582 627.536,1537.214 567.724,1537.218 567.724,1553.587 " />
<polygon stroke="black" stroke-width="1" fill="rgb(204, 204, 204)" fill-opacity="1" points="627.537,1565.731 627.536,1553.582 567.724,1553.587 567.724,1565.736 " />
<polygon stroke="black" stroke-width="1" fill="rgb(204, 204, 204)" fill-opacity="1" points="627.539,1582.342 627.537,1565.731 567.724,1565.736 567.724,1582.347 " />
<polygon stroke="black" stroke-width="1" fill="rgb(204, 204, 204)" fill-opacity="1" points="627.539,1582.342 627.540,1595.749 647.109,1609.154 645.965,1582.340 " />
<polygon stroke="black" stroke-width="1" fill="rgb(204, 204, 204)" fill-opacity="1" points="488.339,1609.154 507.908,1595.749 507.910,1582.342 489.483,1582.340 " />

</svg>
