<?xml version="1.0" standalone="no"?>
<!DOCTYPE svg PUBLIC "-//W3C//DTD SVG 1.1//EN" 
  "http://www.w3.org/Graphics/SVG/1.1/DTD/svg11.dtd">
<svg width="2048" height="1024" viewBox="0 0 2048 1024"
     xmlns="http://www.w3.org/2000/svg" version="1.1">
<desc>interrawt3.blend, (Blender 4.3.2)</desc>
<polygon stroke="black" stroke-width="1" fill="rgb(170, 170, 170)" fill-opacity="1" points="531.432,527.319 538.504,531.456 542.596,524.373 535.546,520.277 " />
<polygon stroke="black" stroke-width="1" fill="rgb(170, 170, 170)" fill-opacity="1" points="542.642,516.180 542.596,524.373 550.775,524.376 550.798,516.223 " />
<polygon stroke="black" stroke-width="1" fill="rgb(170, 170, 170)" fill-opacity="1" points="561.935,535.597 554.863,531.460 550.771,538.543 557.820,542.639 " />
<polygon stroke="black" stroke-width="1" fill="rgb(170, 170, 170)" fill-opacity="1" points="535.473,542.597 542.592,538.541 538.504,531.456 531.431,535.512 " />
<polygon stroke="black" stroke-width="1" fill="rgb(170, 170, 170)" fill-opacity="1" points="557.893,520.319 550.775,524.376 554.863,531.460 561.935,527.404 " />
<polygon stroke="black" stroke-width="1" fill="rgb(170, 170, 170)" fill-opacity="1" points="550.725,546.736 550.771,538.543 542.592,538.541 542.569,546.694 " />
<polygon stroke="black" stroke-width="1" fill="rgb(170, 170, 170)" fill-opacity="1" points="538.504,531.456 542.592,538.541 546.683,531.458 " />
<polygon stroke="black" stroke-width="1" fill="rgb(170, 170, 170)" fill-opacity="1" points="542.592,538.541 550.771,538.543 546.683,531.458 " />
<polygon stroke="black" stroke-width="1" fill="rgb(170, 170, 170)" fill-opacity="1" points="550.771,538.543 554.863,531.460 546.683,531.458 " />
<polygon stroke="black" stroke-width="1" fill="rgb(170, 170, 170)" fill-opacity="1" points="554.863,531.460 550.775,524.376 546.683,531.458 " />
<polygon stroke="black" stroke-width="1" fill="rgb(170, 170, 170)" fill-opacity="1" points="550.775,524.376 542.596,524.373 546.683,531.458 " />
<polygon stroke="black" stroke-width="1" fill="rgb(170, 170, 170)" fill-opacity="1" points="542.596,524.373 538.504,531.456 546.683,531.458 " />
<polygon stroke="black" stroke-width="1" fill="rgb(170, 170, 170)" fill-opacity="1" points="531.432,527.319 538.504,531.456 542.596,524.373 535.546,520.277 " />
<polygon stroke="black" stroke-width="1" fill="rgb(170, 170, 170)" fill-opacity="1" points="542.642,516.180 542.596,524.373 550.775,524.376 550.798,516.223 " />
<polygon stroke="black" stroke-width="1" fill="rgb(170, 170, 170)" fill-opacity="1" points="561.935,535.597 554.863,531.460 550.771,538.543 557.820,542.639 " />
<polygon stroke="black" stroke-width="1" fill="rgb(170, 170, 170)" fill-opacity="1" points="535.473,542.597 542.592,538.541 538.504,531.456 531.431,535.512 " />
<polygon stroke="black" stroke-width="1" fill="rgb(170, 170, 170)" fill-opacity="1" points="557.893,520.319 550.775,524.376 554.863,531.460 561.935,527.404 " />
<polygon stroke="black" stroke-width="1" fill="rgb(170, 170, 170)" fill-opacity="1" points="550.725,546.736 550.771,538.543 542.592,538.541 542.569,546.694 " />
<polygon stroke="black" stroke-width="1" fill="rgb(170, 170, 170)" fill-opacity="1" points="538.504,531.456 542.592,538.541 546.683,531.458 " />
<polygon stroke="black" stroke-width="1" fill="rgb(170, 170, 170)" fill-opacity="1" points="542.592,538.541 550.771,538.543 546.683,531.458 " />
<polygon stroke="black" stroke-width="1" fill="rgb(170, 170, 170)" fill-opacity="1" points="550.771,538.543 554.863,531.460 546.683,531.458 " />
<polygon stroke="black" stroke-width="1" fill="rgb(170, 170, 170)" fill-opacity="1" points="554.863,531.460 550.775,524.376 546.683,531.458 " />
<polygon stroke="black" stroke-width="1" fill="rgb(170, 170, 170)" fill-opacity="1" points="550.775,524.376 542.596,524.373 546.683,531.458 " />
<polygon stroke="black" stroke-width="1" fill="rgb(170, 170, 170)" fill-opacity="1" points="542.596,524.373 538.504,531.456 546.683,531.458 " />
<polygon stroke="black" stroke-width="1" fill="rgb(170, 170, 170)" fill-opacity="1" points="531.432,527.319 535.546,520.277 542.596,524.373 538.504,531.456 " />
<polygon stroke="black" stroke-width="1" fill="rgb(170, 170, 170)" fill-opacity="1" points="542.642,516.180 550.798,516.223 550.775,524.376 542.596,524.373 " />
<polygon stroke="black" stroke-width="1" fill="rgb(170, 170, 170)" fill-opacity="1" points="561.935,535.597 557.820,542.639 550.771,538.543 554.863,531.460 " />
<polygon stroke="black" stroke-width="1" fill="rgb(170, 170, 170)" fill-opacity="1" points="535.473,542.597 531.431,535.512 538.504,531.456 542.592,538.541 " />
<polygon stroke="black" stroke-width="1" fill="rgb(170, 170, 170)" fill-opacity="1" points="557.893,520.319 561.935,527.404 554.863,531.460 550.775,524.376 " />
<polygon stroke="black" stroke-width="1" fill="rgb(170, 170, 170)" fill-opacity="1" points="550.725,546.736 542.569,546.694 542.592,538.541 550.771,538.543 " />
<polygon stroke="black" stroke-width="1" fill="rgb(170, 170, 170)" fill-opacity="1" points="538.504,531.456 546.683,531.458 542.592,538.541 " />
<polygon stroke="black" stroke-width="1" fill="rgb(170, 170, 170)" fill-opacity="1" points="542.592,538.541 546.683,531.458 550.771,538.543 " />
<polygon stroke="black" stroke-width="1" fill="rgb(170, 170, 170)" fill-opacity="1" points="550.771,538.543 546.683,531.458 554.863,531.460 " />
<polygon stroke="black" stroke-width="1" fill="rgb(170, 170, 170)" fill-opacity="1" points="554.863,531.460 546.683,531.458 550.775,524.376 " />
<polygon stroke="black" stroke-width="1" fill="rgb(170, 170, 170)" fill-opacity="1" points="550.775,524.376 546.683,531.458 542.596,524.373 " />
<polygon stroke="black" stroke-width="1" fill="rgb(170, 170, 170)" fill-opacity="1" points="542.596,524.373 546.683,531.458 538.504,531.456 " />
<polygon stroke="black" stroke-width="1" fill="rgb(170, 170, 170)" fill-opacity="1" points="531.432,527.319 538.504,531.456 542.596,524.373 535.546,520.277 " />
<polygon stroke="black" stroke-width="1" fill="rgb(170, 170, 170)" fill-opacity="1" points="542.642,516.180 542.596,524.373 550.775,524.376 550.798,516.223 " />
<polygon stroke="black" stroke-width="1" fill="rgb(170, 170, 170)" fill-opacity="1" points="561.935,535.597 554.863,531.460 550.771,538.543 557.820,542.639 " />
<polygon stroke="black" stroke-width="1" fill="rgb(170, 170, 170)" fill-opacity="1" points="535.473,542.597 542.592,538.541 538.504,531.456 531.431,535.512 " />
<polygon stroke="black" stroke-width="1" fill="rgb(170, 170, 170)" fill-opacity="1" points="557.893,520.319 550.775,524.376 554.863,531.460 561.935,527.404 " />
<polygon stroke="black" stroke-width="1" fill="rgb(170, 170, 170)" fill-opacity="1" points="550.725,546.736 550.771,538.543 542.592,538.541 542.569,546.694 " />
<polygon stroke="black" stroke-width="1" fill="rgb(170, 170, 170)" fill-opacity="1" points="538.504,531.456 542.592,538.541 546.683,531.458 " />
<polygon stroke="black" stroke-width="1" fill="rgb(170, 170, 170)" fill-opacity="1" points="542.592,538.541 550.771,538.543 546.683,531.458 " />
<polygon stroke="black" stroke-width="1" fill="rgb(170, 170, 170)" fill-opacity="1" points="550.771,538.543 554.863,531.460 546.683,531.458 " />
<polygon stroke="black" stroke-width="1" fill="rgb(170, 170, 170)" fill-opacity="1" points="554.863,531.460 550.775,524.376 546.683,531.458 " />
<polygon stroke="black" stroke-width="1" fill="rgb(170, 170, 170)" fill-opacity="1" points="550.775,524.376 542.596,524.373 546.683,531.458 " />
<polygon stroke="black" stroke-width="1" fill="rgb(170, 170, 170)" fill-opacity="1" points="542.596,524.373 538.504,531.456 546.683,531.458 " />

</svg>
